<mxfile host="app.diagrams.net" agent="Mozilla/5.0 (Windows NT 10.0; Win64; x64) AppleWebKit/537.36 (KHTML, like Gecko) Chrome/136.0.0.0 Safari/537.36 Edg/136.0.0.0" version="27.0.6">
  <diagram id="R2lEEEUBdFMjLlhIrx00" name="Page-1">
    <mxGraphModel dx="1629" dy="644" grid="1" gridSize="10" guides="1" tooltips="1" connect="1" arrows="1" fold="1" page="1" pageScale="1" pageWidth="850" pageHeight="1100" math="0" shadow="0" extFonts="Permanent Marker^https://fonts.googleapis.com/css?family=Permanent+Marker">
      <root>
        <mxCell id="0" />
        <mxCell id="1" parent="0" />
        <mxCell id="C-vyLk0tnHw3VtMMgP7b-23" value="Users" style="shape=table;startSize=40;container=1;collapsible=1;childLayout=tableLayout;fixedRows=1;rowLines=1;fontStyle=1;align=center;resizeLast=0;swimlaneLine=1;fixDash=0;shadow=0;fontSize=12;movable=0;resizable=0;rotatable=0;deletable=0;editable=0;locked=1;connectable=0;" parent="1" vertex="1">
          <mxGeometry width="280" height="280" as="geometry" />
        </mxCell>
        <mxCell id="C-vyLk0tnHw3VtMMgP7b-24" value="" style="shape=partialRectangle;collapsible=0;dropTarget=0;pointerEvents=0;fillColor=none;points=[[0,0.5],[1,0.5]];portConstraint=eastwest;top=0;left=0;right=0;bottom=1;fixDash=0;resizeLast=0;shadow=0;fontSize=12;" parent="C-vyLk0tnHw3VtMMgP7b-23" vertex="1">
          <mxGeometry y="40" width="280" height="30" as="geometry" />
        </mxCell>
        <mxCell id="C-vyLk0tnHw3VtMMgP7b-25" value="PK" style="shape=partialRectangle;overflow=hidden;connectable=0;fillColor=none;top=0;left=0;bottom=0;right=0;fontStyle=1;fixDash=0;resizeLast=0;shadow=0;fontSize=12;" parent="C-vyLk0tnHw3VtMMgP7b-24" vertex="1">
          <mxGeometry width="33" height="30" as="geometry">
            <mxRectangle width="33" height="30" as="alternateBounds" />
          </mxGeometry>
        </mxCell>
        <mxCell id="C-vyLk0tnHw3VtMMgP7b-26" value="user_id INT AUTO_INCREMENT" style="shape=partialRectangle;overflow=hidden;connectable=0;fillColor=none;top=0;left=0;bottom=0;right=0;align=left;spacingLeft=6;fontStyle=1;fixDash=0;resizeLast=0;shadow=0;fontSize=12;" parent="C-vyLk0tnHw3VtMMgP7b-24" vertex="1">
          <mxGeometry x="33" width="247" height="30" as="geometry">
            <mxRectangle width="247" height="30" as="alternateBounds" />
          </mxGeometry>
        </mxCell>
        <mxCell id="C-vyLk0tnHw3VtMMgP7b-27" value="" style="shape=partialRectangle;collapsible=0;dropTarget=0;pointerEvents=0;fillColor=none;points=[[0,0.5],[1,0.5]];portConstraint=eastwest;top=0;left=0;right=0;bottom=0;fixDash=0;resizeLast=0;shadow=0;fontSize=12;" parent="C-vyLk0tnHw3VtMMgP7b-23" vertex="1">
          <mxGeometry y="70" width="280" height="30" as="geometry" />
        </mxCell>
        <mxCell id="C-vyLk0tnHw3VtMMgP7b-28" value="" style="shape=partialRectangle;overflow=hidden;connectable=0;fillColor=none;top=0;left=0;bottom=0;right=0;fixDash=0;resizeLast=0;shadow=0;fontSize=12;" parent="C-vyLk0tnHw3VtMMgP7b-27" vertex="1">
          <mxGeometry width="33" height="30" as="geometry">
            <mxRectangle width="33" height="30" as="alternateBounds" />
          </mxGeometry>
        </mxCell>
        <mxCell id="C-vyLk0tnHw3VtMMgP7b-29" value="full_name VARCHAR(100)" style="shape=partialRectangle;overflow=hidden;connectable=0;fillColor=none;top=0;left=0;bottom=0;right=0;align=left;spacingLeft=6;fixDash=0;resizeLast=0;shadow=0;fontSize=12;" parent="C-vyLk0tnHw3VtMMgP7b-27" vertex="1">
          <mxGeometry x="33" width="247" height="30" as="geometry">
            <mxRectangle width="247" height="30" as="alternateBounds" />
          </mxGeometry>
        </mxCell>
        <mxCell id="5nSqA9O4YfpTEkWZaX1V-44" value="" style="shape=partialRectangle;collapsible=0;dropTarget=0;pointerEvents=0;fillColor=none;points=[[0,0.5],[1,0.5]];portConstraint=eastwest;top=0;left=0;right=0;bottom=0;fixDash=0;resizeLast=0;shadow=0;fontSize=12;" vertex="1" parent="C-vyLk0tnHw3VtMMgP7b-23">
          <mxGeometry y="100" width="280" height="30" as="geometry" />
        </mxCell>
        <mxCell id="5nSqA9O4YfpTEkWZaX1V-45" value="" style="shape=partialRectangle;overflow=hidden;connectable=0;fillColor=none;top=0;left=0;bottom=0;right=0;fixDash=0;resizeLast=0;shadow=0;fontSize=12;" vertex="1" parent="5nSqA9O4YfpTEkWZaX1V-44">
          <mxGeometry width="33" height="30" as="geometry">
            <mxRectangle width="33" height="30" as="alternateBounds" />
          </mxGeometry>
        </mxCell>
        <mxCell id="5nSqA9O4YfpTEkWZaX1V-46" value="email VARCHAR(100)" style="shape=partialRectangle;overflow=hidden;connectable=0;fillColor=none;top=0;left=0;bottom=0;right=0;align=left;spacingLeft=6;fixDash=0;resizeLast=0;shadow=0;fontSize=12;" vertex="1" parent="5nSqA9O4YfpTEkWZaX1V-44">
          <mxGeometry x="33" width="247" height="30" as="geometry">
            <mxRectangle width="247" height="30" as="alternateBounds" />
          </mxGeometry>
        </mxCell>
        <mxCell id="5nSqA9O4YfpTEkWZaX1V-47" value="" style="shape=partialRectangle;collapsible=0;dropTarget=0;pointerEvents=0;fillColor=none;points=[[0,0.5],[1,0.5]];portConstraint=eastwest;top=0;left=0;right=0;bottom=0;fixDash=0;resizeLast=0;shadow=0;fontSize=12;" vertex="1" parent="C-vyLk0tnHw3VtMMgP7b-23">
          <mxGeometry y="130" width="280" height="30" as="geometry" />
        </mxCell>
        <mxCell id="5nSqA9O4YfpTEkWZaX1V-48" value="" style="shape=partialRectangle;overflow=hidden;connectable=0;fillColor=none;top=0;left=0;bottom=0;right=0;fixDash=0;resizeLast=0;shadow=0;fontSize=12;" vertex="1" parent="5nSqA9O4YfpTEkWZaX1V-47">
          <mxGeometry width="33" height="30" as="geometry">
            <mxRectangle width="33" height="30" as="alternateBounds" />
          </mxGeometry>
        </mxCell>
        <mxCell id="5nSqA9O4YfpTEkWZaX1V-49" value="password_hash VARCHAR(255)" style="shape=partialRectangle;overflow=hidden;connectable=0;fillColor=none;top=0;left=0;bottom=0;right=0;align=left;spacingLeft=6;fixDash=0;resizeLast=0;shadow=0;fontSize=12;" vertex="1" parent="5nSqA9O4YfpTEkWZaX1V-47">
          <mxGeometry x="33" width="247" height="30" as="geometry">
            <mxRectangle width="247" height="30" as="alternateBounds" />
          </mxGeometry>
        </mxCell>
        <mxCell id="5nSqA9O4YfpTEkWZaX1V-50" value="" style="shape=partialRectangle;collapsible=0;dropTarget=0;pointerEvents=0;fillColor=none;points=[[0,0.5],[1,0.5]];portConstraint=eastwest;top=0;left=0;right=0;bottom=0;fixDash=0;resizeLast=0;shadow=0;fontSize=12;" vertex="1" parent="C-vyLk0tnHw3VtMMgP7b-23">
          <mxGeometry y="160" width="280" height="30" as="geometry" />
        </mxCell>
        <mxCell id="5nSqA9O4YfpTEkWZaX1V-51" value="" style="shape=partialRectangle;overflow=hidden;connectable=0;fillColor=none;top=0;left=0;bottom=0;right=0;fixDash=0;resizeLast=0;shadow=0;fontSize=12;" vertex="1" parent="5nSqA9O4YfpTEkWZaX1V-50">
          <mxGeometry width="33" height="30" as="geometry">
            <mxRectangle width="33" height="30" as="alternateBounds" />
          </mxGeometry>
        </mxCell>
        <mxCell id="5nSqA9O4YfpTEkWZaX1V-52" value="role ENUM(&#39;R&amp;D&#39;, &#39;HoD&#39;, &#39;SL&#39;, &#39;Lec&#39;, &#39;HoED&#39;)" style="shape=partialRectangle;overflow=hidden;connectable=0;fillColor=none;top=0;left=0;bottom=0;right=0;align=left;spacingLeft=6;fixDash=0;resizeLast=0;shadow=0;fontSize=12;" vertex="1" parent="5nSqA9O4YfpTEkWZaX1V-50">
          <mxGeometry x="33" width="247" height="30" as="geometry">
            <mxRectangle width="247" height="30" as="alternateBounds" />
          </mxGeometry>
        </mxCell>
        <mxCell id="5nSqA9O4YfpTEkWZaX1V-53" value="" style="shape=partialRectangle;collapsible=0;dropTarget=0;pointerEvents=0;fillColor=none;points=[[0,0.5],[1,0.5]];portConstraint=eastwest;top=0;left=0;right=0;bottom=0;fixDash=0;resizeLast=0;shadow=0;fontSize=12;" vertex="1" parent="C-vyLk0tnHw3VtMMgP7b-23">
          <mxGeometry y="190" width="280" height="30" as="geometry" />
        </mxCell>
        <mxCell id="5nSqA9O4YfpTEkWZaX1V-54" value="" style="shape=partialRectangle;overflow=hidden;connectable=0;fillColor=none;top=0;left=0;bottom=0;right=0;fixDash=0;resizeLast=0;shadow=0;fontSize=12;" vertex="1" parent="5nSqA9O4YfpTEkWZaX1V-53">
          <mxGeometry width="33" height="30" as="geometry">
            <mxRectangle width="33" height="30" as="alternateBounds" />
          </mxGeometry>
        </mxCell>
        <mxCell id="5nSqA9O4YfpTEkWZaX1V-55" value="status ENUM(&#39;active&#39;, &#39;inactive&#39;)" style="shape=partialRectangle;overflow=hidden;connectable=0;fillColor=none;top=0;left=0;bottom=0;right=0;align=left;spacingLeft=6;fixDash=0;resizeLast=0;shadow=0;fontSize=12;" vertex="1" parent="5nSqA9O4YfpTEkWZaX1V-53">
          <mxGeometry x="33" width="247" height="30" as="geometry">
            <mxRectangle width="247" height="30" as="alternateBounds" />
          </mxGeometry>
        </mxCell>
        <mxCell id="5nSqA9O4YfpTEkWZaX1V-56" value="" style="shape=partialRectangle;collapsible=0;dropTarget=0;pointerEvents=0;fillColor=none;points=[[0,0.5],[1,0.5]];portConstraint=eastwest;top=0;left=0;right=0;bottom=0;fixDash=0;resizeLast=0;shadow=0;fontSize=12;" vertex="1" parent="C-vyLk0tnHw3VtMMgP7b-23">
          <mxGeometry y="220" width="280" height="30" as="geometry" />
        </mxCell>
        <mxCell id="5nSqA9O4YfpTEkWZaX1V-57" value="" style="shape=partialRectangle;overflow=hidden;connectable=0;fillColor=none;top=0;left=0;bottom=0;right=0;fixDash=0;resizeLast=0;shadow=0;fontSize=12;" vertex="1" parent="5nSqA9O4YfpTEkWZaX1V-56">
          <mxGeometry width="33" height="30" as="geometry">
            <mxRectangle width="33" height="30" as="alternateBounds" />
          </mxGeometry>
        </mxCell>
        <mxCell id="5nSqA9O4YfpTEkWZaX1V-58" value="created_at DATETIME" style="shape=partialRectangle;overflow=hidden;connectable=0;fillColor=none;top=0;left=0;bottom=0;right=0;align=left;spacingLeft=6;fixDash=0;resizeLast=0;shadow=0;fontSize=12;" vertex="1" parent="5nSqA9O4YfpTEkWZaX1V-56">
          <mxGeometry x="33" width="247" height="30" as="geometry">
            <mxRectangle width="247" height="30" as="alternateBounds" />
          </mxGeometry>
        </mxCell>
        <mxCell id="5nSqA9O4YfpTEkWZaX1V-59" value="" style="shape=partialRectangle;collapsible=0;dropTarget=0;pointerEvents=0;fillColor=none;points=[[0,0.5],[1,0.5]];portConstraint=eastwest;top=0;left=0;right=0;bottom=0;fixDash=0;resizeLast=0;shadow=0;fontSize=12;" vertex="1" parent="C-vyLk0tnHw3VtMMgP7b-23">
          <mxGeometry y="250" width="280" height="30" as="geometry" />
        </mxCell>
        <mxCell id="5nSqA9O4YfpTEkWZaX1V-60" value="" style="shape=partialRectangle;overflow=hidden;connectable=0;fillColor=none;top=0;left=0;bottom=0;right=0;fixDash=0;resizeLast=0;shadow=0;fontSize=12;" vertex="1" parent="5nSqA9O4YfpTEkWZaX1V-59">
          <mxGeometry width="33" height="30" as="geometry">
            <mxRectangle width="33" height="30" as="alternateBounds" />
          </mxGeometry>
        </mxCell>
        <mxCell id="5nSqA9O4YfpTEkWZaX1V-61" value="updated_at DATETIME" style="shape=partialRectangle;overflow=hidden;connectable=0;fillColor=none;top=0;left=0;bottom=0;right=0;align=left;spacingLeft=6;fixDash=0;resizeLast=0;shadow=0;fontSize=12;" vertex="1" parent="5nSqA9O4YfpTEkWZaX1V-59">
          <mxGeometry x="33" width="247" height="30" as="geometry">
            <mxRectangle width="247" height="30" as="alternateBounds" />
          </mxGeometry>
        </mxCell>
        <mxCell id="5nSqA9O4YfpTEkWZaX1V-62" value="Courses" style="shape=table;startSize=40;container=1;collapsible=1;childLayout=tableLayout;fixedRows=1;rowLines=1;fontStyle=1;align=center;resizeLast=0;swimlaneLine=1;fixDash=0;shadow=0;fontSize=12;movable=0;resizable=0;rotatable=0;deletable=0;editable=0;locked=1;connectable=0;" vertex="1" parent="1">
          <mxGeometry y="320" width="280" height="280" as="geometry" />
        </mxCell>
        <mxCell id="5nSqA9O4YfpTEkWZaX1V-63" value="" style="shape=partialRectangle;collapsible=0;dropTarget=0;pointerEvents=0;fillColor=none;points=[[0,0.5],[1,0.5]];portConstraint=eastwest;top=0;left=0;right=0;bottom=1;fixDash=0;resizeLast=0;shadow=0;fontSize=12;" vertex="1" parent="5nSqA9O4YfpTEkWZaX1V-62">
          <mxGeometry y="40" width="280" height="30" as="geometry" />
        </mxCell>
        <mxCell id="5nSqA9O4YfpTEkWZaX1V-64" value="PK" style="shape=partialRectangle;overflow=hidden;connectable=0;fillColor=none;top=0;left=0;bottom=0;right=0;fontStyle=1;fixDash=0;resizeLast=0;shadow=0;fontSize=12;" vertex="1" parent="5nSqA9O4YfpTEkWZaX1V-63">
          <mxGeometry width="33" height="30" as="geometry">
            <mxRectangle width="33" height="30" as="alternateBounds" />
          </mxGeometry>
        </mxCell>
        <mxCell id="5nSqA9O4YfpTEkWZaX1V-65" value="course_id INT AUTO_INCREMENT" style="shape=partialRectangle;overflow=hidden;connectable=0;fillColor=none;top=0;left=0;bottom=0;right=0;align=left;spacingLeft=6;fontStyle=1;fixDash=0;resizeLast=0;shadow=0;fontSize=12;" vertex="1" parent="5nSqA9O4YfpTEkWZaX1V-63">
          <mxGeometry x="33" width="247" height="30" as="geometry">
            <mxRectangle width="247" height="30" as="alternateBounds" />
          </mxGeometry>
        </mxCell>
        <mxCell id="5nSqA9O4YfpTEkWZaX1V-66" value="" style="shape=partialRectangle;collapsible=0;dropTarget=0;pointerEvents=0;fillColor=none;points=[[0,0.5],[1,0.5]];portConstraint=eastwest;top=0;left=0;right=0;bottom=0;fixDash=0;resizeLast=0;shadow=0;fontSize=12;" vertex="1" parent="5nSqA9O4YfpTEkWZaX1V-62">
          <mxGeometry y="70" width="280" height="30" as="geometry" />
        </mxCell>
        <mxCell id="5nSqA9O4YfpTEkWZaX1V-67" value="" style="shape=partialRectangle;overflow=hidden;connectable=0;fillColor=none;top=0;left=0;bottom=0;right=0;fixDash=0;resizeLast=0;shadow=0;fontSize=12;" vertex="1" parent="5nSqA9O4YfpTEkWZaX1V-66">
          <mxGeometry width="33" height="30" as="geometry">
            <mxRectangle width="33" height="30" as="alternateBounds" />
          </mxGeometry>
        </mxCell>
        <mxCell id="5nSqA9O4YfpTEkWZaX1V-68" value="course_code VARCHAR(20) UNIQUE" style="shape=partialRectangle;overflow=hidden;connectable=0;fillColor=none;top=0;left=0;bottom=0;right=0;align=left;spacingLeft=6;fixDash=0;resizeLast=0;shadow=0;fontSize=12;" vertex="1" parent="5nSqA9O4YfpTEkWZaX1V-66">
          <mxGeometry x="33" width="247" height="30" as="geometry">
            <mxRectangle width="247" height="30" as="alternateBounds" />
          </mxGeometry>
        </mxCell>
        <mxCell id="5nSqA9O4YfpTEkWZaX1V-69" value="" style="shape=partialRectangle;collapsible=0;dropTarget=0;pointerEvents=0;fillColor=none;points=[[0,0.5],[1,0.5]];portConstraint=eastwest;top=0;left=0;right=0;bottom=0;fixDash=0;resizeLast=0;shadow=0;fontSize=12;" vertex="1" parent="5nSqA9O4YfpTEkWZaX1V-62">
          <mxGeometry y="100" width="280" height="30" as="geometry" />
        </mxCell>
        <mxCell id="5nSqA9O4YfpTEkWZaX1V-70" value="" style="shape=partialRectangle;overflow=hidden;connectable=0;fillColor=none;top=0;left=0;bottom=0;right=0;fixDash=0;resizeLast=0;shadow=0;fontSize=12;" vertex="1" parent="5nSqA9O4YfpTEkWZaX1V-69">
          <mxGeometry width="33" height="30" as="geometry">
            <mxRectangle width="33" height="30" as="alternateBounds" />
          </mxGeometry>
        </mxCell>
        <mxCell id="5nSqA9O4YfpTEkWZaX1V-71" value="course_name INT" style="shape=partialRectangle;overflow=hidden;connectable=0;fillColor=none;top=0;left=0;bottom=0;right=0;align=left;spacingLeft=6;fixDash=0;resizeLast=0;shadow=0;fontSize=12;" vertex="1" parent="5nSqA9O4YfpTEkWZaX1V-69">
          <mxGeometry x="33" width="247" height="30" as="geometry">
            <mxRectangle width="247" height="30" as="alternateBounds" />
          </mxGeometry>
        </mxCell>
        <mxCell id="5nSqA9O4YfpTEkWZaX1V-72" value="" style="shape=partialRectangle;collapsible=0;dropTarget=0;pointerEvents=0;fillColor=none;points=[[0,0.5],[1,0.5]];portConstraint=eastwest;top=0;left=0;right=0;bottom=0;fixDash=0;resizeLast=0;shadow=0;fontSize=12;" vertex="1" parent="5nSqA9O4YfpTEkWZaX1V-62">
          <mxGeometry y="130" width="280" height="30" as="geometry" />
        </mxCell>
        <mxCell id="5nSqA9O4YfpTEkWZaX1V-73" value="" style="shape=partialRectangle;overflow=hidden;connectable=0;fillColor=none;top=0;left=0;bottom=0;right=0;fixDash=0;resizeLast=0;shadow=0;fontSize=12;" vertex="1" parent="5nSqA9O4YfpTEkWZaX1V-72">
          <mxGeometry width="33" height="30" as="geometry">
            <mxRectangle width="33" height="30" as="alternateBounds" />
          </mxGeometry>
        </mxCell>
        <mxCell id="5nSqA9O4YfpTEkWZaX1V-74" value="credits TINYINT" style="shape=partialRectangle;overflow=hidden;connectable=0;fillColor=none;top=0;left=0;bottom=0;right=0;align=left;spacingLeft=6;fixDash=0;resizeLast=0;shadow=0;fontSize=12;" vertex="1" parent="5nSqA9O4YfpTEkWZaX1V-72">
          <mxGeometry x="33" width="247" height="30" as="geometry">
            <mxRectangle width="247" height="30" as="alternateBounds" />
          </mxGeometry>
        </mxCell>
        <mxCell id="5nSqA9O4YfpTEkWZaX1V-75" value="" style="shape=partialRectangle;collapsible=0;dropTarget=0;pointerEvents=0;fillColor=none;points=[[0,0.5],[1,0.5]];portConstraint=eastwest;top=0;left=0;right=0;bottom=0;fixDash=0;resizeLast=0;shadow=0;fontSize=12;" vertex="1" parent="5nSqA9O4YfpTEkWZaX1V-62">
          <mxGeometry y="160" width="280" height="30" as="geometry" />
        </mxCell>
        <mxCell id="5nSqA9O4YfpTEkWZaX1V-76" value="" style="shape=partialRectangle;overflow=hidden;connectable=0;fillColor=none;top=0;left=0;bottom=0;right=0;fixDash=0;resizeLast=0;shadow=0;fontSize=12;" vertex="1" parent="5nSqA9O4YfpTEkWZaX1V-75">
          <mxGeometry width="33" height="30" as="geometry">
            <mxRectangle width="33" height="30" as="alternateBounds" />
          </mxGeometry>
        </mxCell>
        <mxCell id="5nSqA9O4YfpTEkWZaX1V-77" value="department VARCHAR(100)" style="shape=partialRectangle;overflow=hidden;connectable=0;fillColor=none;top=0;left=0;bottom=0;right=0;align=left;spacingLeft=6;fixDash=0;resizeLast=0;shadow=0;fontSize=12;" vertex="1" parent="5nSqA9O4YfpTEkWZaX1V-75">
          <mxGeometry x="33" width="247" height="30" as="geometry">
            <mxRectangle width="247" height="30" as="alternateBounds" />
          </mxGeometry>
        </mxCell>
        <mxCell id="5nSqA9O4YfpTEkWZaX1V-81" value="" style="shape=partialRectangle;collapsible=0;dropTarget=0;pointerEvents=0;fillColor=none;points=[[0,0.5],[1,0.5]];portConstraint=eastwest;top=0;left=0;right=0;bottom=0;fixDash=0;resizeLast=0;shadow=0;fontSize=12;" vertex="1" parent="5nSqA9O4YfpTEkWZaX1V-62">
          <mxGeometry y="190" width="280" height="30" as="geometry" />
        </mxCell>
        <mxCell id="5nSqA9O4YfpTEkWZaX1V-82" value="" style="shape=partialRectangle;overflow=hidden;connectable=0;fillColor=none;top=0;left=0;bottom=0;right=0;fixDash=0;resizeLast=0;shadow=0;fontSize=12;" vertex="1" parent="5nSqA9O4YfpTEkWZaX1V-81">
          <mxGeometry width="33" height="30" as="geometry">
            <mxRectangle width="33" height="30" as="alternateBounds" />
          </mxGeometry>
        </mxCell>
        <mxCell id="5nSqA9O4YfpTEkWZaX1V-83" value="description TEXT" style="shape=partialRectangle;overflow=hidden;connectable=0;fillColor=none;top=0;left=0;bottom=0;right=0;align=left;spacingLeft=6;fixDash=0;resizeLast=0;shadow=0;fontSize=12;" vertex="1" parent="5nSqA9O4YfpTEkWZaX1V-81">
          <mxGeometry x="33" width="247" height="30" as="geometry">
            <mxRectangle width="247" height="30" as="alternateBounds" />
          </mxGeometry>
        </mxCell>
        <mxCell id="5nSqA9O4YfpTEkWZaX1V-94" value="" style="shape=partialRectangle;collapsible=0;dropTarget=0;pointerEvents=0;fillColor=none;points=[[0,0.5],[1,0.5]];portConstraint=eastwest;top=0;left=0;right=0;bottom=0;fixDash=0;resizeLast=0;shadow=0;fontSize=12;" vertex="1" parent="5nSqA9O4YfpTEkWZaX1V-62">
          <mxGeometry y="220" width="280" height="30" as="geometry" />
        </mxCell>
        <UserObject label="FK" link="&#xa;&lt;span data-lucid-content=&quot;{&amp;quot;t&amp;quot;:&amp;quot;FK&amp;quot;,&amp;quot;m&amp;quot;:[{&amp;quot;s&amp;quot;:0,&amp;quot;n&amp;quot;:&amp;quot;a&amp;quot;,&amp;quot;v&amp;quot;:&amp;quot;center&amp;quot;},{&amp;quot;s&amp;quot;:0,&amp;quot;n&amp;quot;:&amp;quot;p&amp;quot;,&amp;quot;v&amp;quot;:1.2},{&amp;quot;s&amp;quot;:0,&amp;quot;n&amp;quot;:&amp;quot;c&amp;quot;,&amp;quot;v&amp;quot;:&amp;quot;#000000ff&amp;quot;,&amp;quot;e&amp;quot;:2},{&amp;quot;s&amp;quot;:0,&amp;quot;n&amp;quot;:&amp;quot;fc&amp;quot;,&amp;quot;v&amp;quot;:&amp;quot;Regular&amp;quot;,&amp;quot;e&amp;quot;:2},{&amp;quot;s&amp;quot;:0,&amp;quot;n&amp;quot;:&amp;quot;fid&amp;quot;,&amp;quot;v&amp;quot;:947029,&amp;quot;e&amp;quot;:2},{&amp;quot;s&amp;quot;:0,&amp;quot;n&amp;quot;:&amp;quot;fsp&amp;quot;,&amp;quot;v&amp;quot;:&amp;quot;ss_presetShapeStyle1_textStyle&amp;quot;,&amp;quot;e&amp;quot;:2},{&amp;quot;s&amp;quot;:0,&amp;quot;n&amp;quot;:&amp;quot;fsp2&amp;quot;,&amp;quot;v&amp;quot;:&amp;quot;ss_presetShapeStyle1_textStyle&amp;quot;,&amp;quot;e&amp;quot;:2},{&amp;quot;s&amp;quot;:0,&amp;quot;n&amp;quot;:&amp;quot;s&amp;quot;,&amp;quot;v&amp;quot;:17.77777777777778,&amp;quot;e&amp;quot;:2}]}&quot; data-lucid-type=&quot;application/vnd.lucid.text&quot;&gt;&lt;span style=&quot;color:#000000;font-size:13.333333333333336px;&quot;&gt;FK&lt;/span&gt;&lt;/span&gt;&#xa;&#xa;" id="5nSqA9O4YfpTEkWZaX1V-95">
          <mxCell style="shape=partialRectangle;overflow=hidden;connectable=0;fillColor=none;top=0;left=0;bottom=0;right=0;fixDash=0;resizeLast=0;shadow=0;fontSize=12;" vertex="1" parent="5nSqA9O4YfpTEkWZaX1V-94">
            <mxGeometry width="33" height="30" as="geometry">
              <mxRectangle width="33" height="30" as="alternateBounds" />
            </mxGeometry>
          </mxCell>
        </UserObject>
        <mxCell id="5nSqA9O4YfpTEkWZaX1V-96" value="created_by INT" style="shape=partialRectangle;overflow=hidden;connectable=0;fillColor=none;top=0;left=0;bottom=0;right=0;align=left;spacingLeft=6;fixDash=0;resizeLast=0;shadow=0;fontSize=12;" vertex="1" parent="5nSqA9O4YfpTEkWZaX1V-94">
          <mxGeometry x="33" width="247" height="30" as="geometry">
            <mxRectangle width="247" height="30" as="alternateBounds" />
          </mxGeometry>
        </mxCell>
        <mxCell id="5nSqA9O4YfpTEkWZaX1V-97" value="" style="shape=partialRectangle;collapsible=0;dropTarget=0;pointerEvents=0;fillColor=none;points=[[0,0.5],[1,0.5]];portConstraint=eastwest;top=0;left=0;right=0;bottom=0;fixDash=0;resizeLast=0;shadow=0;fontSize=12;" vertex="1" parent="5nSqA9O4YfpTEkWZaX1V-62">
          <mxGeometry y="250" width="280" height="30" as="geometry" />
        </mxCell>
        <mxCell id="5nSqA9O4YfpTEkWZaX1V-98" value="" style="shape=partialRectangle;overflow=hidden;connectable=0;fillColor=none;top=0;left=0;bottom=0;right=0;fixDash=0;resizeLast=0;shadow=0;fontSize=12;" vertex="1" parent="5nSqA9O4YfpTEkWZaX1V-97">
          <mxGeometry width="33" height="30" as="geometry">
            <mxRectangle width="33" height="30" as="alternateBounds" />
          </mxGeometry>
        </mxCell>
        <mxCell id="5nSqA9O4YfpTEkWZaX1V-99" value="created_at DATETIME" style="shape=partialRectangle;overflow=hidden;connectable=0;fillColor=none;top=0;left=0;bottom=0;right=0;align=left;spacingLeft=6;fixDash=0;resizeLast=0;shadow=0;fontSize=12;" vertex="1" parent="5nSqA9O4YfpTEkWZaX1V-97">
          <mxGeometry x="33" width="247" height="30" as="geometry">
            <mxRectangle width="247" height="30" as="alternateBounds" />
          </mxGeometry>
        </mxCell>
        <mxCell id="5nSqA9O4YfpTEkWZaX1V-100" value="&lt;span data-lucid-content=&quot;{&amp;quot;t&amp;quot;:&amp;quot;Users(user_id)&amp;quot;,&amp;quot;m&amp;quot;:[{&amp;quot;s&amp;quot;:0,&amp;quot;n&amp;quot;:&amp;quot;a&amp;quot;,&amp;quot;v&amp;quot;:&amp;quot;center&amp;quot;},{&amp;quot;s&amp;quot;:0,&amp;quot;n&amp;quot;:&amp;quot;p&amp;quot;,&amp;quot;v&amp;quot;:1.2},{&amp;quot;s&amp;quot;:0,&amp;quot;n&amp;quot;:&amp;quot;fc&amp;quot;,&amp;quot;v&amp;quot;:&amp;quot;Regular&amp;quot;,&amp;quot;e&amp;quot;:14},{&amp;quot;s&amp;quot;:0,&amp;quot;n&amp;quot;:&amp;quot;fid&amp;quot;,&amp;quot;v&amp;quot;:947029,&amp;quot;e&amp;quot;:14},{&amp;quot;s&amp;quot;:0,&amp;quot;n&amp;quot;:&amp;quot;fsp&amp;quot;,&amp;quot;v&amp;quot;:&amp;quot;ss_presetShapeStyle1_textStyle&amp;quot;,&amp;quot;e&amp;quot;:14},{&amp;quot;s&amp;quot;:0,&amp;quot;n&amp;quot;:&amp;quot;s&amp;quot;,&amp;quot;v&amp;quot;:17.77777777777778,&amp;quot;e&amp;quot;:14}]}&quot; data-lucid-type=&quot;application/vnd.lucid.text&quot;&gt;&lt;span&gt;Users(user_id)&lt;/span&gt;&lt;/span&gt;" style="rounded=0;whiteSpace=wrap;html=1;fontSize=12;" vertex="1" parent="1">
          <mxGeometry x="-90" y="540" width="90" height="30" as="geometry" />
        </mxCell>
        <mxCell id="5nSqA9O4YfpTEkWZaX1V-101" value="CLOs (Course Learning Outcomes)" style="shape=table;startSize=40;container=1;collapsible=1;childLayout=tableLayout;fixedRows=1;rowLines=1;fontStyle=1;align=center;resizeLast=0;swimlaneLine=1;fixDash=0;shadow=0;fontSize=12;movable=0;resizable=0;rotatable=0;deletable=0;editable=0;locked=1;connectable=0;" vertex="1" parent="1">
          <mxGeometry y="640" width="280" height="190" as="geometry" />
        </mxCell>
        <mxCell id="5nSqA9O4YfpTEkWZaX1V-102" value="" style="shape=partialRectangle;collapsible=0;dropTarget=0;pointerEvents=0;fillColor=none;points=[[0,0.5],[1,0.5]];portConstraint=eastwest;top=0;left=0;right=0;bottom=1;fixDash=0;resizeLast=0;shadow=0;fontSize=12;" vertex="1" parent="5nSqA9O4YfpTEkWZaX1V-101">
          <mxGeometry y="40" width="280" height="30" as="geometry" />
        </mxCell>
        <mxCell id="5nSqA9O4YfpTEkWZaX1V-103" value="PK" style="shape=partialRectangle;overflow=hidden;connectable=0;fillColor=none;top=0;left=0;bottom=0;right=0;fontStyle=1;fixDash=0;resizeLast=0;shadow=0;fontSize=12;" vertex="1" parent="5nSqA9O4YfpTEkWZaX1V-102">
          <mxGeometry width="33" height="30" as="geometry">
            <mxRectangle width="33" height="30" as="alternateBounds" />
          </mxGeometry>
        </mxCell>
        <mxCell id="5nSqA9O4YfpTEkWZaX1V-104" value="clo_id INT AUTO_INCREMENT" style="shape=partialRectangle;overflow=hidden;connectable=0;fillColor=none;top=0;left=0;bottom=0;right=0;align=left;spacingLeft=6;fontStyle=1;fixDash=0;resizeLast=0;shadow=0;fontSize=12;" vertex="1" parent="5nSqA9O4YfpTEkWZaX1V-102">
          <mxGeometry x="33" width="247" height="30" as="geometry">
            <mxRectangle width="247" height="30" as="alternateBounds" />
          </mxGeometry>
        </mxCell>
        <mxCell id="5nSqA9O4YfpTEkWZaX1V-105" value="" style="shape=partialRectangle;collapsible=0;dropTarget=0;pointerEvents=0;fillColor=none;points=[[0,0.5],[1,0.5]];portConstraint=eastwest;top=0;left=0;right=0;bottom=0;fixDash=0;resizeLast=0;shadow=0;fontSize=12;" vertex="1" parent="5nSqA9O4YfpTEkWZaX1V-101">
          <mxGeometry y="70" width="280" height="30" as="geometry" />
        </mxCell>
        <mxCell id="5nSqA9O4YfpTEkWZaX1V-106" value="FK" style="shape=partialRectangle;overflow=hidden;connectable=0;fillColor=none;top=0;left=0;bottom=0;right=0;fixDash=0;resizeLast=0;shadow=0;fontSize=12;" vertex="1" parent="5nSqA9O4YfpTEkWZaX1V-105">
          <mxGeometry width="33" height="30" as="geometry">
            <mxRectangle width="33" height="30" as="alternateBounds" />
          </mxGeometry>
        </mxCell>
        <mxCell id="5nSqA9O4YfpTEkWZaX1V-107" value="course_id INT" style="shape=partialRectangle;overflow=hidden;connectable=0;fillColor=none;top=0;left=0;bottom=0;right=0;align=left;spacingLeft=6;fixDash=0;resizeLast=0;shadow=0;fontSize=12;" vertex="1" parent="5nSqA9O4YfpTEkWZaX1V-105">
          <mxGeometry x="33" width="247" height="30" as="geometry">
            <mxRectangle width="247" height="30" as="alternateBounds" />
          </mxGeometry>
        </mxCell>
        <mxCell id="5nSqA9O4YfpTEkWZaX1V-108" value="" style="shape=partialRectangle;collapsible=0;dropTarget=0;pointerEvents=0;fillColor=none;points=[[0,0.5],[1,0.5]];portConstraint=eastwest;top=0;left=0;right=0;bottom=0;fixDash=0;resizeLast=0;shadow=0;fontSize=12;" vertex="1" parent="5nSqA9O4YfpTEkWZaX1V-101">
          <mxGeometry y="100" width="280" height="30" as="geometry" />
        </mxCell>
        <mxCell id="5nSqA9O4YfpTEkWZaX1V-109" value="" style="shape=partialRectangle;overflow=hidden;connectable=0;fillColor=none;top=0;left=0;bottom=0;right=0;fixDash=0;resizeLast=0;shadow=0;fontSize=12;" vertex="1" parent="5nSqA9O4YfpTEkWZaX1V-108">
          <mxGeometry width="33" height="30" as="geometry">
            <mxRectangle width="33" height="30" as="alternateBounds" />
          </mxGeometry>
        </mxCell>
        <mxCell id="5nSqA9O4YfpTEkWZaX1V-110" value="clo_text VARCHAR(20)" style="shape=partialRectangle;overflow=hidden;connectable=0;fillColor=none;top=0;left=0;bottom=0;right=0;align=left;spacingLeft=6;fixDash=0;resizeLast=0;shadow=0;fontSize=12;" vertex="1" parent="5nSqA9O4YfpTEkWZaX1V-108">
          <mxGeometry x="33" width="247" height="30" as="geometry">
            <mxRectangle width="247" height="30" as="alternateBounds" />
          </mxGeometry>
        </mxCell>
        <mxCell id="5nSqA9O4YfpTEkWZaX1V-111" value="" style="shape=partialRectangle;collapsible=0;dropTarget=0;pointerEvents=0;fillColor=none;points=[[0,0.5],[1,0.5]];portConstraint=eastwest;top=0;left=0;right=0;bottom=0;fixDash=0;resizeLast=0;shadow=0;fontSize=12;" vertex="1" parent="5nSqA9O4YfpTEkWZaX1V-101">
          <mxGeometry y="130" width="280" height="30" as="geometry" />
        </mxCell>
        <mxCell id="5nSqA9O4YfpTEkWZaX1V-112" value="" style="shape=partialRectangle;overflow=hidden;connectable=0;fillColor=none;top=0;left=0;bottom=0;right=0;fixDash=0;resizeLast=0;shadow=0;fontSize=12;" vertex="1" parent="5nSqA9O4YfpTEkWZaX1V-111">
          <mxGeometry width="33" height="30" as="geometry">
            <mxRectangle width="33" height="30" as="alternateBounds" />
          </mxGeometry>
        </mxCell>
        <mxCell id="5nSqA9O4YfpTEkWZaX1V-113" value="bloom_level ENUM(&#39;Remember&#39;, &#39;Understan&#xa;d&#39;, &#39;Apply&#39;, &#39;Analyze&#39;, &#39;Evaluate&#39;, &#39;Create&#39;)" style="shape=partialRectangle;overflow=hidden;connectable=0;fillColor=none;top=0;left=0;bottom=0;right=0;align=left;spacingLeft=6;fixDash=0;resizeLast=0;shadow=0;fontSize=12;" vertex="1" parent="5nSqA9O4YfpTEkWZaX1V-111">
          <mxGeometry x="33" width="247" height="30" as="geometry">
            <mxRectangle width="247" height="30" as="alternateBounds" />
          </mxGeometry>
        </mxCell>
        <mxCell id="5nSqA9O4YfpTEkWZaX1V-114" value="" style="shape=partialRectangle;collapsible=0;dropTarget=0;pointerEvents=0;fillColor=none;points=[[0,0.5],[1,0.5]];portConstraint=eastwest;top=0;left=0;right=0;bottom=0;fixDash=0;resizeLast=0;shadow=0;fontSize=12;" vertex="1" parent="5nSqA9O4YfpTEkWZaX1V-101">
          <mxGeometry y="160" width="280" height="30" as="geometry" />
        </mxCell>
        <mxCell id="5nSqA9O4YfpTEkWZaX1V-115" value="" style="shape=partialRectangle;overflow=hidden;connectable=0;fillColor=none;top=0;left=0;bottom=0;right=0;fixDash=0;resizeLast=0;shadow=0;fontSize=12;" vertex="1" parent="5nSqA9O4YfpTEkWZaX1V-114">
          <mxGeometry width="33" height="30" as="geometry">
            <mxRectangle width="33" height="30" as="alternateBounds" />
          </mxGeometry>
        </mxCell>
        <mxCell id="5nSqA9O4YfpTEkWZaX1V-116" value="weight DECIMAL(4,2)" style="shape=partialRectangle;overflow=hidden;connectable=0;fillColor=none;top=0;left=0;bottom=0;right=0;align=left;spacingLeft=6;fixDash=0;resizeLast=0;shadow=0;fontSize=12;" vertex="1" parent="5nSqA9O4YfpTEkWZaX1V-114">
          <mxGeometry x="33" width="247" height="30" as="geometry">
            <mxRectangle width="247" height="30" as="alternateBounds" />
          </mxGeometry>
        </mxCell>
        <mxCell id="5nSqA9O4YfpTEkWZaX1V-127" value="&lt;span data-lucid-content=&quot;{&amp;quot;t&amp;quot;:&amp;quot;Courses(course_id)&amp;quot;,&amp;quot;m&amp;quot;:[{&amp;quot;s&amp;quot;:0,&amp;quot;n&amp;quot;:&amp;quot;a&amp;quot;,&amp;quot;v&amp;quot;:&amp;quot;center&amp;quot;},{&amp;quot;s&amp;quot;:0,&amp;quot;n&amp;quot;:&amp;quot;od&amp;quot;,&amp;quot;v&amp;quot;:1},{&amp;quot;s&amp;quot;:0,&amp;quot;n&amp;quot;:&amp;quot;p&amp;quot;,&amp;quot;v&amp;quot;:0.9583333333333333},{&amp;quot;s&amp;quot;:0,&amp;quot;n&amp;quot;:&amp;quot;fc&amp;quot;,&amp;quot;v&amp;quot;:&amp;quot;Regular&amp;quot;,&amp;quot;e&amp;quot;:18},{&amp;quot;s&amp;quot;:0,&amp;quot;n&amp;quot;:&amp;quot;fid&amp;quot;,&amp;quot;v&amp;quot;:947029,&amp;quot;e&amp;quot;:18},{&amp;quot;s&amp;quot;:0,&amp;quot;n&amp;quot;:&amp;quot;s&amp;quot;,&amp;quot;v&amp;quot;:17.77777777777778,&amp;quot;e&amp;quot;:18}]}&quot; data-lucid-type=&quot;application/vnd.lucid.text&quot;&gt;&lt;span&gt;Courses(course_id)&lt;/span&gt;&lt;/span&gt;" style="rounded=0;whiteSpace=wrap;html=1;fontSize=12;" vertex="1" parent="1">
          <mxGeometry x="-110" y="710" width="110" height="30" as="geometry" />
        </mxCell>
        <mxCell id="5nSqA9O4YfpTEkWZaX1V-128" value="QuestionDifficulties" style="shape=table;startSize=40;container=1;collapsible=1;childLayout=tableLayout;fixedRows=1;rowLines=1;fontStyle=1;align=center;resizeLast=0;swimlaneLine=1;fixDash=0;shadow=0;fontSize=12;movable=0;resizable=0;rotatable=0;deletable=0;editable=0;locked=1;connectable=0;" vertex="1" parent="1">
          <mxGeometry y="870" width="280" height="160" as="geometry" />
        </mxCell>
        <mxCell id="5nSqA9O4YfpTEkWZaX1V-129" value="" style="shape=partialRectangle;collapsible=0;dropTarget=0;pointerEvents=0;fillColor=none;points=[[0,0.5],[1,0.5]];portConstraint=eastwest;top=0;left=0;right=0;bottom=1;fixDash=0;resizeLast=0;shadow=0;fontSize=12;" vertex="1" parent="5nSqA9O4YfpTEkWZaX1V-128">
          <mxGeometry y="40" width="280" height="30" as="geometry" />
        </mxCell>
        <mxCell id="5nSqA9O4YfpTEkWZaX1V-130" value="PK" style="shape=partialRectangle;overflow=hidden;connectable=0;fillColor=none;top=0;left=0;bottom=0;right=0;fontStyle=1;fixDash=0;resizeLast=0;shadow=0;fontSize=12;" vertex="1" parent="5nSqA9O4YfpTEkWZaX1V-129">
          <mxGeometry width="33" height="30" as="geometry">
            <mxRectangle width="33" height="30" as="alternateBounds" />
          </mxGeometry>
        </mxCell>
        <mxCell id="5nSqA9O4YfpTEkWZaX1V-131" value="difficulty_id INT AUTO_INCREMENT" style="shape=partialRectangle;overflow=hidden;connectable=0;fillColor=none;top=0;left=0;bottom=0;right=0;align=left;spacingLeft=6;fontStyle=1;fixDash=0;resizeLast=0;shadow=0;fontSize=12;" vertex="1" parent="5nSqA9O4YfpTEkWZaX1V-129">
          <mxGeometry x="33" width="247" height="30" as="geometry">
            <mxRectangle width="247" height="30" as="alternateBounds" />
          </mxGeometry>
        </mxCell>
        <mxCell id="5nSqA9O4YfpTEkWZaX1V-132" value="" style="shape=partialRectangle;collapsible=0;dropTarget=0;pointerEvents=0;fillColor=none;points=[[0,0.5],[1,0.5]];portConstraint=eastwest;top=0;left=0;right=0;bottom=0;fixDash=0;resizeLast=0;shadow=0;fontSize=12;" vertex="1" parent="5nSqA9O4YfpTEkWZaX1V-128">
          <mxGeometry y="70" width="280" height="30" as="geometry" />
        </mxCell>
        <mxCell id="5nSqA9O4YfpTEkWZaX1V-133" value="" style="shape=partialRectangle;overflow=hidden;connectable=0;fillColor=none;top=0;left=0;bottom=0;right=0;fixDash=0;resizeLast=0;shadow=0;fontSize=12;" vertex="1" parent="5nSqA9O4YfpTEkWZaX1V-132">
          <mxGeometry width="33" height="30" as="geometry">
            <mxRectangle width="33" height="30" as="alternateBounds" />
          </mxGeometry>
        </mxCell>
        <mxCell id="5nSqA9O4YfpTEkWZaX1V-134" value="name ENUM(&#39;Easy&#39;, &#39;Medium&#39;, &#39;Hard&#39;)" style="shape=partialRectangle;overflow=hidden;connectable=0;fillColor=none;top=0;left=0;bottom=0;right=0;align=left;spacingLeft=6;fixDash=0;resizeLast=0;shadow=0;fontSize=12;" vertex="1" parent="5nSqA9O4YfpTEkWZaX1V-132">
          <mxGeometry x="33" width="247" height="30" as="geometry">
            <mxRectangle width="247" height="30" as="alternateBounds" />
          </mxGeometry>
        </mxCell>
        <mxCell id="5nSqA9O4YfpTEkWZaX1V-135" value="" style="shape=partialRectangle;collapsible=0;dropTarget=0;pointerEvents=0;fillColor=none;points=[[0,0.5],[1,0.5]];portConstraint=eastwest;top=0;left=0;right=0;bottom=0;fixDash=0;resizeLast=0;shadow=0;fontSize=12;" vertex="1" parent="5nSqA9O4YfpTEkWZaX1V-128">
          <mxGeometry y="100" width="280" height="30" as="geometry" />
        </mxCell>
        <mxCell id="5nSqA9O4YfpTEkWZaX1V-136" value="" style="shape=partialRectangle;overflow=hidden;connectable=0;fillColor=none;top=0;left=0;bottom=0;right=0;fixDash=0;resizeLast=0;shadow=0;fontSize=12;" vertex="1" parent="5nSqA9O4YfpTEkWZaX1V-135">
          <mxGeometry width="33" height="30" as="geometry">
            <mxRectangle width="33" height="30" as="alternateBounds" />
          </mxGeometry>
        </mxCell>
        <mxCell id="5nSqA9O4YfpTEkWZaX1V-137" value="description TEXT" style="shape=partialRectangle;overflow=hidden;connectable=0;fillColor=none;top=0;left=0;bottom=0;right=0;align=left;spacingLeft=6;fixDash=0;resizeLast=0;shadow=0;fontSize=12;" vertex="1" parent="5nSqA9O4YfpTEkWZaX1V-135">
          <mxGeometry x="33" width="247" height="30" as="geometry">
            <mxRectangle width="247" height="30" as="alternateBounds" />
          </mxGeometry>
        </mxCell>
        <mxCell id="5nSqA9O4YfpTEkWZaX1V-138" value="" style="shape=partialRectangle;collapsible=0;dropTarget=0;pointerEvents=0;fillColor=none;points=[[0,0.5],[1,0.5]];portConstraint=eastwest;top=0;left=0;right=0;bottom=0;fixDash=0;resizeLast=0;shadow=0;fontSize=12;" vertex="1" parent="5nSqA9O4YfpTEkWZaX1V-128">
          <mxGeometry y="130" width="280" height="30" as="geometry" />
        </mxCell>
        <mxCell id="5nSqA9O4YfpTEkWZaX1V-139" value="" style="shape=partialRectangle;overflow=hidden;connectable=0;fillColor=none;top=0;left=0;bottom=0;right=0;fixDash=0;resizeLast=0;shadow=0;fontSize=12;" vertex="1" parent="5nSqA9O4YfpTEkWZaX1V-138">
          <mxGeometry width="33" height="30" as="geometry">
            <mxRectangle width="33" height="30" as="alternateBounds" />
          </mxGeometry>
        </mxCell>
        <mxCell id="5nSqA9O4YfpTEkWZaX1V-140" value="weight_factor DECIMAL(4,2)" style="shape=partialRectangle;overflow=hidden;connectable=0;fillColor=none;top=0;left=0;bottom=0;right=0;align=left;spacingLeft=6;fixDash=0;resizeLast=0;shadow=0;fontSize=12;" vertex="1" parent="5nSqA9O4YfpTEkWZaX1V-138">
          <mxGeometry x="33" width="247" height="30" as="geometry">
            <mxRectangle width="247" height="30" as="alternateBounds" />
          </mxGeometry>
        </mxCell>
        <mxCell id="5nSqA9O4YfpTEkWZaX1V-218" value="Questions" style="shape=table;startSize=40;container=1;collapsible=1;childLayout=tableLayout;fixedRows=1;rowLines=1;fontStyle=1;align=center;resizeLast=0;swimlaneLine=1;fixDash=0;shadow=0;fontSize=12;movable=0;resizable=0;rotatable=0;deletable=0;editable=0;locked=1;connectable=0;" vertex="1" parent="1">
          <mxGeometry y="1070" width="280" height="400" as="geometry" />
        </mxCell>
        <mxCell id="5nSqA9O4YfpTEkWZaX1V-219" value="" style="shape=partialRectangle;collapsible=0;dropTarget=0;pointerEvents=0;fillColor=none;points=[[0,0.5],[1,0.5]];portConstraint=eastwest;top=0;left=0;right=0;bottom=1;fixDash=0;resizeLast=0;shadow=0;fontSize=12;" vertex="1" parent="5nSqA9O4YfpTEkWZaX1V-218">
          <mxGeometry y="40" width="280" height="30" as="geometry" />
        </mxCell>
        <mxCell id="5nSqA9O4YfpTEkWZaX1V-220" value="PK" style="shape=partialRectangle;overflow=hidden;connectable=0;fillColor=none;top=0;left=0;bottom=0;right=0;fontStyle=1;fixDash=0;resizeLast=0;shadow=0;fontSize=12;" vertex="1" parent="5nSqA9O4YfpTEkWZaX1V-219">
          <mxGeometry width="33" height="30" as="geometry">
            <mxRectangle width="33" height="30" as="alternateBounds" />
          </mxGeometry>
        </mxCell>
        <mxCell id="5nSqA9O4YfpTEkWZaX1V-221" value="question_id INT AUTO_INCREMENT" style="shape=partialRectangle;overflow=hidden;connectable=0;fillColor=none;top=0;left=0;bottom=0;right=0;align=left;spacingLeft=6;fontStyle=1;fixDash=0;resizeLast=0;shadow=0;fontSize=12;" vertex="1" parent="5nSqA9O4YfpTEkWZaX1V-219">
          <mxGeometry x="33" width="247" height="30" as="geometry">
            <mxRectangle width="247" height="30" as="alternateBounds" />
          </mxGeometry>
        </mxCell>
        <mxCell id="5nSqA9O4YfpTEkWZaX1V-222" value="" style="shape=partialRectangle;collapsible=0;dropTarget=0;pointerEvents=0;fillColor=none;points=[[0,0.5],[1,0.5]];portConstraint=eastwest;top=0;left=0;right=0;bottom=0;fixDash=0;resizeLast=0;shadow=0;fontSize=12;" vertex="1" parent="5nSqA9O4YfpTEkWZaX1V-218">
          <mxGeometry y="70" width="280" height="30" as="geometry" />
        </mxCell>
        <mxCell id="5nSqA9O4YfpTEkWZaX1V-223" value="FK" style="shape=partialRectangle;overflow=hidden;connectable=0;fillColor=none;top=0;left=0;bottom=0;right=0;fixDash=0;resizeLast=0;shadow=0;fontSize=12;" vertex="1" parent="5nSqA9O4YfpTEkWZaX1V-222">
          <mxGeometry width="33" height="30" as="geometry">
            <mxRectangle width="33" height="30" as="alternateBounds" />
          </mxGeometry>
        </mxCell>
        <mxCell id="5nSqA9O4YfpTEkWZaX1V-224" value="course_id INT" style="shape=partialRectangle;overflow=hidden;connectable=0;fillColor=none;top=0;left=0;bottom=0;right=0;align=left;spacingLeft=6;fixDash=0;resizeLast=0;shadow=0;fontSize=12;" vertex="1" parent="5nSqA9O4YfpTEkWZaX1V-222">
          <mxGeometry x="33" width="247" height="30" as="geometry">
            <mxRectangle width="247" height="30" as="alternateBounds" />
          </mxGeometry>
        </mxCell>
        <mxCell id="5nSqA9O4YfpTEkWZaX1V-225" value="" style="shape=partialRectangle;collapsible=0;dropTarget=0;pointerEvents=0;fillColor=none;points=[[0,0.5],[1,0.5]];portConstraint=eastwest;top=0;left=0;right=0;bottom=0;fixDash=0;resizeLast=0;shadow=0;fontSize=12;" vertex="1" parent="5nSqA9O4YfpTEkWZaX1V-218">
          <mxGeometry y="100" width="280" height="30" as="geometry" />
        </mxCell>
        <mxCell id="5nSqA9O4YfpTEkWZaX1V-226" value="FK" style="shape=partialRectangle;overflow=hidden;connectable=0;fillColor=none;top=0;left=0;bottom=0;right=0;fixDash=0;resizeLast=0;shadow=0;fontSize=12;" vertex="1" parent="5nSqA9O4YfpTEkWZaX1V-225">
          <mxGeometry width="33" height="30" as="geometry">
            <mxRectangle width="33" height="30" as="alternateBounds" />
          </mxGeometry>
        </mxCell>
        <mxCell id="5nSqA9O4YfpTEkWZaX1V-227" value="clo_id INT" style="shape=partialRectangle;overflow=hidden;connectable=0;fillColor=none;top=0;left=0;bottom=0;right=0;align=left;spacingLeft=6;fixDash=0;resizeLast=0;shadow=0;fontSize=12;" vertex="1" parent="5nSqA9O4YfpTEkWZaX1V-225">
          <mxGeometry x="33" width="247" height="30" as="geometry">
            <mxRectangle width="247" height="30" as="alternateBounds" />
          </mxGeometry>
        </mxCell>
        <mxCell id="5nSqA9O4YfpTEkWZaX1V-228" value="" style="shape=partialRectangle;collapsible=0;dropTarget=0;pointerEvents=0;fillColor=none;points=[[0,0.5],[1,0.5]];portConstraint=eastwest;top=0;left=0;right=0;bottom=0;fixDash=0;resizeLast=0;shadow=0;fontSize=12;" vertex="1" parent="5nSqA9O4YfpTEkWZaX1V-218">
          <mxGeometry y="130" width="280" height="30" as="geometry" />
        </mxCell>
        <mxCell id="5nSqA9O4YfpTEkWZaX1V-229" value="FK" style="shape=partialRectangle;overflow=hidden;connectable=0;fillColor=none;top=0;left=0;bottom=0;right=0;fixDash=0;resizeLast=0;shadow=0;fontSize=12;" vertex="1" parent="5nSqA9O4YfpTEkWZaX1V-228">
          <mxGeometry width="33" height="30" as="geometry">
            <mxRectangle width="33" height="30" as="alternateBounds" />
          </mxGeometry>
        </mxCell>
        <mxCell id="5nSqA9O4YfpTEkWZaX1V-230" value="difficulty_id INT" style="shape=partialRectangle;overflow=hidden;connectable=0;fillColor=none;top=0;left=0;bottom=0;right=0;align=left;spacingLeft=6;fixDash=0;resizeLast=0;shadow=0;fontSize=12;" vertex="1" parent="5nSqA9O4YfpTEkWZaX1V-228">
          <mxGeometry x="33" width="247" height="30" as="geometry">
            <mxRectangle width="247" height="30" as="alternateBounds" />
          </mxGeometry>
        </mxCell>
        <mxCell id="5nSqA9O4YfpTEkWZaX1V-246" value="" style="shape=partialRectangle;collapsible=0;dropTarget=0;pointerEvents=0;fillColor=none;points=[[0,0.5],[1,0.5]];portConstraint=eastwest;top=0;left=0;right=0;bottom=0;fixDash=0;resizeLast=0;shadow=0;fontSize=12;" vertex="1" parent="5nSqA9O4YfpTEkWZaX1V-218">
          <mxGeometry y="160" width="280" height="30" as="geometry" />
        </mxCell>
        <mxCell id="5nSqA9O4YfpTEkWZaX1V-247" value="" style="shape=partialRectangle;overflow=hidden;connectable=0;fillColor=none;top=0;left=0;bottom=0;right=0;fixDash=0;resizeLast=0;shadow=0;fontSize=12;" vertex="1" parent="5nSqA9O4YfpTEkWZaX1V-246">
          <mxGeometry width="33" height="30" as="geometry">
            <mxRectangle width="33" height="30" as="alternateBounds" />
          </mxGeometry>
        </mxCell>
        <mxCell id="5nSqA9O4YfpTEkWZaX1V-248" value="question_type ENUM((&#39;MultipleChoice&#39;,&#xa;&#39;Essay&#39;, &#39;TrueFalse&#39;, &#39;Matching&#39;)" style="shape=partialRectangle;overflow=hidden;connectable=0;fillColor=none;top=0;left=0;bottom=0;right=0;align=left;spacingLeft=6;fixDash=0;resizeLast=0;shadow=0;fontSize=12;" vertex="1" parent="5nSqA9O4YfpTEkWZaX1V-246">
          <mxGeometry x="33" width="247" height="30" as="geometry">
            <mxRectangle width="247" height="30" as="alternateBounds" />
          </mxGeometry>
        </mxCell>
        <mxCell id="5nSqA9O4YfpTEkWZaX1V-249" value="" style="shape=partialRectangle;collapsible=0;dropTarget=0;pointerEvents=0;fillColor=none;points=[[0,0.5],[1,0.5]];portConstraint=eastwest;top=0;left=0;right=0;bottom=0;fixDash=0;resizeLast=0;shadow=0;fontSize=12;" vertex="1" parent="5nSqA9O4YfpTEkWZaX1V-218">
          <mxGeometry y="190" width="280" height="30" as="geometry" />
        </mxCell>
        <mxCell id="5nSqA9O4YfpTEkWZaX1V-250" value="" style="shape=partialRectangle;overflow=hidden;connectable=0;fillColor=none;top=0;left=0;bottom=0;right=0;fixDash=0;resizeLast=0;shadow=0;fontSize=12;" vertex="1" parent="5nSqA9O4YfpTEkWZaX1V-249">
          <mxGeometry width="33" height="30" as="geometry">
            <mxRectangle width="33" height="30" as="alternateBounds" />
          </mxGeometry>
        </mxCell>
        <mxCell id="5nSqA9O4YfpTEkWZaX1V-251" value="content TEXT" style="shape=partialRectangle;overflow=hidden;connectable=0;fillColor=none;top=0;left=0;bottom=0;right=0;align=left;spacingLeft=6;fixDash=0;resizeLast=0;shadow=0;fontSize=12;" vertex="1" parent="5nSqA9O4YfpTEkWZaX1V-249">
          <mxGeometry x="33" width="247" height="30" as="geometry">
            <mxRectangle width="247" height="30" as="alternateBounds" />
          </mxGeometry>
        </mxCell>
        <mxCell id="5nSqA9O4YfpTEkWZaX1V-252" value="" style="shape=partialRectangle;collapsible=0;dropTarget=0;pointerEvents=0;fillColor=none;points=[[0,0.5],[1,0.5]];portConstraint=eastwest;top=0;left=0;right=0;bottom=0;fixDash=0;resizeLast=0;shadow=0;fontSize=12;" vertex="1" parent="5nSqA9O4YfpTEkWZaX1V-218">
          <mxGeometry y="220" width="280" height="30" as="geometry" />
        </mxCell>
        <mxCell id="5nSqA9O4YfpTEkWZaX1V-253" value="" style="shape=partialRectangle;overflow=hidden;connectable=0;fillColor=none;top=0;left=0;bottom=0;right=0;fixDash=0;resizeLast=0;shadow=0;fontSize=12;" vertex="1" parent="5nSqA9O4YfpTEkWZaX1V-252">
          <mxGeometry width="33" height="30" as="geometry">
            <mxRectangle width="33" height="30" as="alternateBounds" />
          </mxGeometry>
        </mxCell>
        <mxCell id="5nSqA9O4YfpTEkWZaX1V-254" value="answer_key TEXT" style="shape=partialRectangle;overflow=hidden;connectable=0;fillColor=none;top=0;left=0;bottom=0;right=0;align=left;spacingLeft=6;fixDash=0;resizeLast=0;shadow=0;fontSize=12;" vertex="1" parent="5nSqA9O4YfpTEkWZaX1V-252">
          <mxGeometry x="33" width="247" height="30" as="geometry">
            <mxRectangle width="247" height="30" as="alternateBounds" />
          </mxGeometry>
        </mxCell>
        <mxCell id="5nSqA9O4YfpTEkWZaX1V-255" value="" style="shape=partialRectangle;collapsible=0;dropTarget=0;pointerEvents=0;fillColor=none;points=[[0,0.5],[1,0.5]];portConstraint=eastwest;top=0;left=0;right=0;bottom=0;fixDash=0;resizeLast=0;shadow=0;fontSize=12;" vertex="1" parent="5nSqA9O4YfpTEkWZaX1V-218">
          <mxGeometry y="250" width="280" height="30" as="geometry" />
        </mxCell>
        <mxCell id="5nSqA9O4YfpTEkWZaX1V-256" value="" style="shape=partialRectangle;overflow=hidden;connectable=0;fillColor=none;top=0;left=0;bottom=0;right=0;fixDash=0;resizeLast=0;shadow=0;fontSize=12;" vertex="1" parent="5nSqA9O4YfpTEkWZaX1V-255">
          <mxGeometry width="33" height="30" as="geometry">
            <mxRectangle width="33" height="30" as="alternateBounds" />
          </mxGeometry>
        </mxCell>
        <mxCell id="5nSqA9O4YfpTEkWZaX1V-257" value="explanation TEXT" style="shape=partialRectangle;overflow=hidden;connectable=0;fillColor=none;top=0;left=0;bottom=0;right=0;align=left;spacingLeft=6;fixDash=0;resizeLast=0;shadow=0;fontSize=12;" vertex="1" parent="5nSqA9O4YfpTEkWZaX1V-255">
          <mxGeometry x="33" width="247" height="30" as="geometry">
            <mxRectangle width="247" height="30" as="alternateBounds" />
          </mxGeometry>
        </mxCell>
        <mxCell id="5nSqA9O4YfpTEkWZaX1V-258" value="" style="shape=partialRectangle;collapsible=0;dropTarget=0;pointerEvents=0;fillColor=none;points=[[0,0.5],[1,0.5]];portConstraint=eastwest;top=0;left=0;right=0;bottom=0;fixDash=0;resizeLast=0;shadow=0;fontSize=12;" vertex="1" parent="5nSqA9O4YfpTEkWZaX1V-218">
          <mxGeometry y="280" width="280" height="30" as="geometry" />
        </mxCell>
        <mxCell id="5nSqA9O4YfpTEkWZaX1V-259" value="FK" style="shape=partialRectangle;overflow=hidden;connectable=0;fillColor=none;top=0;left=0;bottom=0;right=0;fixDash=0;resizeLast=0;shadow=0;fontSize=12;" vertex="1" parent="5nSqA9O4YfpTEkWZaX1V-258">
          <mxGeometry width="33" height="30" as="geometry">
            <mxRectangle width="33" height="30" as="alternateBounds" />
          </mxGeometry>
        </mxCell>
        <mxCell id="5nSqA9O4YfpTEkWZaX1V-260" value="created_by INT" style="shape=partialRectangle;overflow=hidden;connectable=0;fillColor=none;top=0;left=0;bottom=0;right=0;align=left;spacingLeft=6;fixDash=0;resizeLast=0;shadow=0;fontSize=12;" vertex="1" parent="5nSqA9O4YfpTEkWZaX1V-258">
          <mxGeometry x="33" width="247" height="30" as="geometry">
            <mxRectangle width="247" height="30" as="alternateBounds" />
          </mxGeometry>
        </mxCell>
        <mxCell id="5nSqA9O4YfpTEkWZaX1V-261" value="" style="shape=partialRectangle;collapsible=0;dropTarget=0;pointerEvents=0;fillColor=none;points=[[0,0.5],[1,0.5]];portConstraint=eastwest;top=0;left=0;right=0;bottom=0;fixDash=0;resizeLast=0;shadow=0;fontSize=12;" vertex="1" parent="5nSqA9O4YfpTEkWZaX1V-218">
          <mxGeometry y="310" width="280" height="30" as="geometry" />
        </mxCell>
        <mxCell id="5nSqA9O4YfpTEkWZaX1V-262" value="" style="shape=partialRectangle;overflow=hidden;connectable=0;fillColor=none;top=0;left=0;bottom=0;right=0;fixDash=0;resizeLast=0;shadow=0;fontSize=12;" vertex="1" parent="5nSqA9O4YfpTEkWZaX1V-261">
          <mxGeometry width="33" height="30" as="geometry">
            <mxRectangle width="33" height="30" as="alternateBounds" />
          </mxGeometry>
        </mxCell>
        <mxCell id="5nSqA9O4YfpTEkWZaX1V-263" value="status ENUM(&#39;draft&#39;, &#39;approved&#39;, rejected&#39;)" style="shape=partialRectangle;overflow=hidden;connectable=0;fillColor=none;top=0;left=0;bottom=0;right=0;align=left;spacingLeft=6;fixDash=0;resizeLast=0;shadow=0;fontSize=12;" vertex="1" parent="5nSqA9O4YfpTEkWZaX1V-261">
          <mxGeometry x="33" width="247" height="30" as="geometry">
            <mxRectangle width="247" height="30" as="alternateBounds" />
          </mxGeometry>
        </mxCell>
        <mxCell id="5nSqA9O4YfpTEkWZaX1V-264" value="" style="shape=partialRectangle;collapsible=0;dropTarget=0;pointerEvents=0;fillColor=none;points=[[0,0.5],[1,0.5]];portConstraint=eastwest;top=0;left=0;right=0;bottom=0;fixDash=0;resizeLast=0;shadow=0;fontSize=12;" vertex="1" parent="5nSqA9O4YfpTEkWZaX1V-218">
          <mxGeometry y="340" width="280" height="30" as="geometry" />
        </mxCell>
        <mxCell id="5nSqA9O4YfpTEkWZaX1V-265" value="" style="shape=partialRectangle;overflow=hidden;connectable=0;fillColor=none;top=0;left=0;bottom=0;right=0;fixDash=0;resizeLast=0;shadow=0;fontSize=12;" vertex="1" parent="5nSqA9O4YfpTEkWZaX1V-264">
          <mxGeometry width="33" height="30" as="geometry">
            <mxRectangle width="33" height="30" as="alternateBounds" />
          </mxGeometry>
        </mxCell>
        <mxCell id="5nSqA9O4YfpTEkWZaX1V-266" value="created_at DATETIME" style="shape=partialRectangle;overflow=hidden;connectable=0;fillColor=none;top=0;left=0;bottom=0;right=0;align=left;spacingLeft=6;fixDash=0;resizeLast=0;shadow=0;fontSize=12;" vertex="1" parent="5nSqA9O4YfpTEkWZaX1V-264">
          <mxGeometry x="33" width="247" height="30" as="geometry">
            <mxRectangle width="247" height="30" as="alternateBounds" />
          </mxGeometry>
        </mxCell>
        <mxCell id="5nSqA9O4YfpTEkWZaX1V-267" value="" style="shape=partialRectangle;collapsible=0;dropTarget=0;pointerEvents=0;fillColor=none;points=[[0,0.5],[1,0.5]];portConstraint=eastwest;top=0;left=0;right=0;bottom=0;fixDash=0;resizeLast=0;shadow=0;fontSize=12;" vertex="1" parent="5nSqA9O4YfpTEkWZaX1V-218">
          <mxGeometry y="370" width="280" height="30" as="geometry" />
        </mxCell>
        <mxCell id="5nSqA9O4YfpTEkWZaX1V-268" value="" style="shape=partialRectangle;overflow=hidden;connectable=0;fillColor=none;top=0;left=0;bottom=0;right=0;fixDash=0;resizeLast=0;shadow=0;fontSize=12;" vertex="1" parent="5nSqA9O4YfpTEkWZaX1V-267">
          <mxGeometry width="33" height="30" as="geometry">
            <mxRectangle width="33" height="30" as="alternateBounds" />
          </mxGeometry>
        </mxCell>
        <mxCell id="5nSqA9O4YfpTEkWZaX1V-269" value="updated_at DATETIME" style="shape=partialRectangle;overflow=hidden;connectable=0;fillColor=none;top=0;left=0;bottom=0;right=0;align=left;spacingLeft=6;fixDash=0;resizeLast=0;shadow=0;fontSize=12;" vertex="1" parent="5nSqA9O4YfpTEkWZaX1V-267">
          <mxGeometry x="33" width="247" height="30" as="geometry">
            <mxRectangle width="247" height="30" as="alternateBounds" />
          </mxGeometry>
        </mxCell>
        <mxCell id="5nSqA9O4YfpTEkWZaX1V-231" value="&lt;span data-lucid-content=&quot;{&amp;quot;t&amp;quot;:&amp;quot;QuestionDifficulties(difficulty_id)&amp;quot;,&amp;quot;m&amp;quot;:[{&amp;quot;s&amp;quot;:0,&amp;quot;n&amp;quot;:&amp;quot;a&amp;quot;,&amp;quot;v&amp;quot;:&amp;quot;center&amp;quot;},{&amp;quot;s&amp;quot;:0,&amp;quot;n&amp;quot;:&amp;quot;p&amp;quot;,&amp;quot;v&amp;quot;:1.2},{&amp;quot;s&amp;quot;:0,&amp;quot;n&amp;quot;:&amp;quot;s&amp;quot;,&amp;quot;v&amp;quot;:21.333333333333336,&amp;quot;e&amp;quot;:35}]}&quot; data-lucid-type=&quot;application/vnd.lucid.text&quot;&gt;&lt;span&gt;QuestionDifficulties(difficulty_id)&lt;/span&gt;&lt;/span&gt;" style="rounded=0;whiteSpace=wrap;html=1;fontSize=12;" vertex="1" parent="1">
          <mxGeometry x="-180" y="1170" width="180" height="30" as="geometry" />
        </mxCell>
        <mxCell id="5nSqA9O4YfpTEkWZaX1V-232" value="&lt;span data-lucid-content=&quot;{&amp;quot;t&amp;quot;:&amp;quot;QuestionDifficulties(difficulty_id)&amp;quot;,&amp;quot;m&amp;quot;:[{&amp;quot;s&amp;quot;:0,&amp;quot;n&amp;quot;:&amp;quot;a&amp;quot;,&amp;quot;v&amp;quot;:&amp;quot;center&amp;quot;},{&amp;quot;s&amp;quot;:0,&amp;quot;n&amp;quot;:&amp;quot;p&amp;quot;,&amp;quot;v&amp;quot;:1.2},{&amp;quot;s&amp;quot;:0,&amp;quot;n&amp;quot;:&amp;quot;s&amp;quot;,&amp;quot;v&amp;quot;:21.333333333333336,&amp;quot;e&amp;quot;:35}]}&quot; data-lucid-type=&quot;application/vnd.lucid.text&quot;&gt;&lt;span&gt;QuestionDifficulties(difficulty_id)&lt;/span&gt;&lt;/span&gt;" style="rounded=0;whiteSpace=wrap;html=1;fontSize=12;" vertex="1" parent="1">
          <mxGeometry x="-180" y="1200" width="180" height="30" as="geometry" />
        </mxCell>
        <mxCell id="5nSqA9O4YfpTEkWZaX1V-270" value="&lt;span data-lucid-content=&quot;{&amp;quot;t&amp;quot;:&amp;quot;Users(user_id)&amp;quot;,&amp;quot;m&amp;quot;:[{&amp;quot;s&amp;quot;:0,&amp;quot;n&amp;quot;:&amp;quot;a&amp;quot;,&amp;quot;v&amp;quot;:&amp;quot;center&amp;quot;},{&amp;quot;s&amp;quot;:0,&amp;quot;n&amp;quot;:&amp;quot;p&amp;quot;,&amp;quot;v&amp;quot;:1.2},{&amp;quot;s&amp;quot;:0,&amp;quot;n&amp;quot;:&amp;quot;fc&amp;quot;,&amp;quot;v&amp;quot;:&amp;quot;Regular&amp;quot;,&amp;quot;e&amp;quot;:14},{&amp;quot;s&amp;quot;:0,&amp;quot;n&amp;quot;:&amp;quot;fid&amp;quot;,&amp;quot;v&amp;quot;:947029,&amp;quot;e&amp;quot;:14},{&amp;quot;s&amp;quot;:0,&amp;quot;n&amp;quot;:&amp;quot;fsp&amp;quot;,&amp;quot;v&amp;quot;:&amp;quot;ss_presetShapeStyle1_textStyle&amp;quot;,&amp;quot;e&amp;quot;:14},{&amp;quot;s&amp;quot;:0,&amp;quot;n&amp;quot;:&amp;quot;s&amp;quot;,&amp;quot;v&amp;quot;:17.77777777777778,&amp;quot;e&amp;quot;:14}]}&quot; data-lucid-type=&quot;application/vnd.lucid.text&quot;&gt;&lt;span&gt;Users(user_id)&lt;/span&gt;&lt;/span&gt;" style="rounded=0;whiteSpace=wrap;html=1;fontSize=12;" vertex="1" parent="1">
          <mxGeometry x="-90" y="1350" width="90" height="30" as="geometry" />
        </mxCell>
        <mxCell id="5nSqA9O4YfpTEkWZaX1V-272" value="&lt;span&gt;Courses(course_id)&lt;/span&gt;" style="rounded=0;whiteSpace=wrap;html=1;fontSize=12;" vertex="1" parent="1">
          <mxGeometry x="-110" y="1140" width="110" height="30" as="geometry" />
        </mxCell>
        <mxCell id="5nSqA9O4YfpTEkWZaX1V-273" value="Exams" style="shape=table;startSize=40;container=1;collapsible=1;childLayout=tableLayout;fixedRows=1;rowLines=1;fontStyle=1;align=center;resizeLast=0;swimlaneLine=1;fixDash=0;shadow=0;fontSize=12;movable=0;resizable=0;rotatable=0;deletable=0;editable=0;locked=1;connectable=0;" vertex="1" parent="1">
          <mxGeometry y="1510" width="280" height="370" as="geometry" />
        </mxCell>
        <mxCell id="5nSqA9O4YfpTEkWZaX1V-274" value="" style="shape=partialRectangle;collapsible=0;dropTarget=0;pointerEvents=0;fillColor=none;points=[[0,0.5],[1,0.5]];portConstraint=eastwest;top=0;left=0;right=0;bottom=1;fixDash=0;resizeLast=0;shadow=0;fontSize=12;" vertex="1" parent="5nSqA9O4YfpTEkWZaX1V-273">
          <mxGeometry y="40" width="280" height="30" as="geometry" />
        </mxCell>
        <mxCell id="5nSqA9O4YfpTEkWZaX1V-275" value="PK" style="shape=partialRectangle;overflow=hidden;connectable=0;fillColor=none;top=0;left=0;bottom=0;right=0;fontStyle=1;fixDash=0;resizeLast=0;shadow=0;fontSize=12;" vertex="1" parent="5nSqA9O4YfpTEkWZaX1V-274">
          <mxGeometry width="33" height="30" as="geometry">
            <mxRectangle width="33" height="30" as="alternateBounds" />
          </mxGeometry>
        </mxCell>
        <mxCell id="5nSqA9O4YfpTEkWZaX1V-276" value="exam_id INT AUTO_INCREMENT" style="shape=partialRectangle;overflow=hidden;connectable=0;fillColor=none;top=0;left=0;bottom=0;right=0;align=left;spacingLeft=6;fontStyle=1;fixDash=0;resizeLast=0;shadow=0;fontSize=12;" vertex="1" parent="5nSqA9O4YfpTEkWZaX1V-274">
          <mxGeometry x="33" width="247" height="30" as="geometry">
            <mxRectangle width="247" height="30" as="alternateBounds" />
          </mxGeometry>
        </mxCell>
        <mxCell id="5nSqA9O4YfpTEkWZaX1V-277" value="" style="shape=partialRectangle;collapsible=0;dropTarget=0;pointerEvents=0;fillColor=none;points=[[0,0.5],[1,0.5]];portConstraint=eastwest;top=0;left=0;right=0;bottom=0;fixDash=0;resizeLast=0;shadow=0;fontSize=12;" vertex="1" parent="5nSqA9O4YfpTEkWZaX1V-273">
          <mxGeometry y="70" width="280" height="30" as="geometry" />
        </mxCell>
        <mxCell id="5nSqA9O4YfpTEkWZaX1V-278" value="FK" style="shape=partialRectangle;overflow=hidden;connectable=0;fillColor=none;top=0;left=0;bottom=0;right=0;fixDash=0;resizeLast=0;shadow=0;fontSize=12;" vertex="1" parent="5nSqA9O4YfpTEkWZaX1V-277">
          <mxGeometry width="33" height="30" as="geometry">
            <mxRectangle width="33" height="30" as="alternateBounds" />
          </mxGeometry>
        </mxCell>
        <mxCell id="5nSqA9O4YfpTEkWZaX1V-279" value="course_id INT" style="shape=partialRectangle;overflow=hidden;connectable=0;fillColor=none;top=0;left=0;bottom=0;right=0;align=left;spacingLeft=6;fixDash=0;resizeLast=0;shadow=0;fontSize=12;" vertex="1" parent="5nSqA9O4YfpTEkWZaX1V-277">
          <mxGeometry x="33" width="247" height="30" as="geometry">
            <mxRectangle width="247" height="30" as="alternateBounds" />
          </mxGeometry>
        </mxCell>
        <mxCell id="5nSqA9O4YfpTEkWZaX1V-280" value="" style="shape=partialRectangle;collapsible=0;dropTarget=0;pointerEvents=0;fillColor=none;points=[[0,0.5],[1,0.5]];portConstraint=eastwest;top=0;left=0;right=0;bottom=0;fixDash=0;resizeLast=0;shadow=0;fontSize=12;" vertex="1" parent="5nSqA9O4YfpTEkWZaX1V-273">
          <mxGeometry y="100" width="280" height="30" as="geometry" />
        </mxCell>
        <mxCell id="5nSqA9O4YfpTEkWZaX1V-281" value="" style="shape=partialRectangle;overflow=hidden;connectable=0;fillColor=none;top=0;left=0;bottom=0;right=0;fixDash=0;resizeLast=0;shadow=0;fontSize=12;" vertex="1" parent="5nSqA9O4YfpTEkWZaX1V-280">
          <mxGeometry width="33" height="30" as="geometry">
            <mxRectangle width="33" height="30" as="alternateBounds" />
          </mxGeometry>
        </mxCell>
        <mxCell id="5nSqA9O4YfpTEkWZaX1V-282" value="exam_title VARCHAR(100)" style="shape=partialRectangle;overflow=hidden;connectable=0;fillColor=none;top=0;left=0;bottom=0;right=0;align=left;spacingLeft=6;fixDash=0;resizeLast=0;shadow=0;fontSize=12;" vertex="1" parent="5nSqA9O4YfpTEkWZaX1V-280">
          <mxGeometry x="33" width="247" height="30" as="geometry">
            <mxRectangle width="247" height="30" as="alternateBounds" />
          </mxGeometry>
        </mxCell>
        <mxCell id="5nSqA9O4YfpTEkWZaX1V-283" value="" style="shape=partialRectangle;collapsible=0;dropTarget=0;pointerEvents=0;fillColor=none;points=[[0,0.5],[1,0.5]];portConstraint=eastwest;top=0;left=0;right=0;bottom=0;fixDash=0;resizeLast=0;shadow=0;fontSize=12;" vertex="1" parent="5nSqA9O4YfpTEkWZaX1V-273">
          <mxGeometry y="130" width="280" height="30" as="geometry" />
        </mxCell>
        <mxCell id="5nSqA9O4YfpTEkWZaX1V-284" value="" style="shape=partialRectangle;overflow=hidden;connectable=0;fillColor=none;top=0;left=0;bottom=0;right=0;fixDash=0;resizeLast=0;shadow=0;fontSize=12;" vertex="1" parent="5nSqA9O4YfpTEkWZaX1V-283">
          <mxGeometry width="33" height="30" as="geometry">
            <mxRectangle width="33" height="30" as="alternateBounds" />
          </mxGeometry>
        </mxCell>
        <mxCell id="5nSqA9O4YfpTEkWZaX1V-285" value="exam_code VARCHAR(20)" style="shape=partialRectangle;overflow=hidden;connectable=0;fillColor=none;top=0;left=0;bottom=0;right=0;align=left;spacingLeft=6;fixDash=0;resizeLast=0;shadow=0;fontSize=12;" vertex="1" parent="5nSqA9O4YfpTEkWZaX1V-283">
          <mxGeometry x="33" width="247" height="30" as="geometry">
            <mxRectangle width="247" height="30" as="alternateBounds" />
          </mxGeometry>
        </mxCell>
        <mxCell id="5nSqA9O4YfpTEkWZaX1V-286" value="" style="shape=partialRectangle;collapsible=0;dropTarget=0;pointerEvents=0;fillColor=none;points=[[0,0.5],[1,0.5]];portConstraint=eastwest;top=0;left=0;right=0;bottom=0;fixDash=0;resizeLast=0;shadow=0;fontSize=12;" vertex="1" parent="5nSqA9O4YfpTEkWZaX1V-273">
          <mxGeometry y="160" width="280" height="30" as="geometry" />
        </mxCell>
        <mxCell id="5nSqA9O4YfpTEkWZaX1V-287" value="" style="shape=partialRectangle;overflow=hidden;connectable=0;fillColor=none;top=0;left=0;bottom=0;right=0;fixDash=0;resizeLast=0;shadow=0;fontSize=12;" vertex="1" parent="5nSqA9O4YfpTEkWZaX1V-286">
          <mxGeometry width="33" height="30" as="geometry">
            <mxRectangle width="33" height="30" as="alternateBounds" />
          </mxGeometry>
        </mxCell>
        <mxCell id="5nSqA9O4YfpTEkWZaX1V-288" value="duration_minutes INT" style="shape=partialRectangle;overflow=hidden;connectable=0;fillColor=none;top=0;left=0;bottom=0;right=0;align=left;spacingLeft=6;fixDash=0;resizeLast=0;shadow=0;fontSize=12;" vertex="1" parent="5nSqA9O4YfpTEkWZaX1V-286">
          <mxGeometry x="33" width="247" height="30" as="geometry">
            <mxRectangle width="247" height="30" as="alternateBounds" />
          </mxGeometry>
        </mxCell>
        <mxCell id="5nSqA9O4YfpTEkWZaX1V-289" value="" style="shape=partialRectangle;collapsible=0;dropTarget=0;pointerEvents=0;fillColor=none;points=[[0,0.5],[1,0.5]];portConstraint=eastwest;top=0;left=0;right=0;bottom=0;fixDash=0;resizeLast=0;shadow=0;fontSize=12;" vertex="1" parent="5nSqA9O4YfpTEkWZaX1V-273">
          <mxGeometry y="190" width="280" height="30" as="geometry" />
        </mxCell>
        <mxCell id="5nSqA9O4YfpTEkWZaX1V-290" value="" style="shape=partialRectangle;overflow=hidden;connectable=0;fillColor=none;top=0;left=0;bottom=0;right=0;fixDash=0;resizeLast=0;shadow=0;fontSize=12;" vertex="1" parent="5nSqA9O4YfpTEkWZaX1V-289">
          <mxGeometry width="33" height="30" as="geometry">
            <mxRectangle width="33" height="30" as="alternateBounds" />
          </mxGeometry>
        </mxCell>
        <mxCell id="5nSqA9O4YfpTEkWZaX1V-291" value="exam_format ENUM(&#39;MultipleChoice&#39;,&#xa;&#39;Essay&#39;, &#39;Mixed&#39;)" style="shape=partialRectangle;overflow=hidden;connectable=0;fillColor=none;top=0;left=0;bottom=0;right=0;align=left;spacingLeft=6;fixDash=0;resizeLast=0;shadow=0;fontSize=12;" vertex="1" parent="5nSqA9O4YfpTEkWZaX1V-289">
          <mxGeometry x="33" width="247" height="30" as="geometry">
            <mxRectangle width="247" height="30" as="alternateBounds" />
          </mxGeometry>
        </mxCell>
        <mxCell id="5nSqA9O4YfpTEkWZaX1V-292" value="" style="shape=partialRectangle;collapsible=0;dropTarget=0;pointerEvents=0;fillColor=none;points=[[0,0.5],[1,0.5]];portConstraint=eastwest;top=0;left=0;right=0;bottom=0;fixDash=0;resizeLast=0;shadow=0;fontSize=12;" vertex="1" parent="5nSqA9O4YfpTEkWZaX1V-273">
          <mxGeometry y="220" width="280" height="30" as="geometry" />
        </mxCell>
        <mxCell id="5nSqA9O4YfpTEkWZaX1V-293" value="" style="shape=partialRectangle;overflow=hidden;connectable=0;fillColor=none;top=0;left=0;bottom=0;right=0;fixDash=0;resizeLast=0;shadow=0;fontSize=12;" vertex="1" parent="5nSqA9O4YfpTEkWZaX1V-292">
          <mxGeometry width="33" height="30" as="geometry">
            <mxRectangle width="33" height="30" as="alternateBounds" />
          </mxGeometry>
        </mxCell>
        <mxCell id="5nSqA9O4YfpTEkWZaX1V-294" value="difficulty_distribution JSON" style="shape=partialRectangle;overflow=hidden;connectable=0;fillColor=none;top=0;left=0;bottom=0;right=0;align=left;spacingLeft=6;fixDash=0;resizeLast=0;shadow=0;fontSize=12;" vertex="1" parent="5nSqA9O4YfpTEkWZaX1V-292">
          <mxGeometry x="33" width="247" height="30" as="geometry">
            <mxRectangle width="247" height="30" as="alternateBounds" />
          </mxGeometry>
        </mxCell>
        <mxCell id="5nSqA9O4YfpTEkWZaX1V-295" value="" style="shape=partialRectangle;collapsible=0;dropTarget=0;pointerEvents=0;fillColor=none;points=[[0,0.5],[1,0.5]];portConstraint=eastwest;top=0;left=0;right=0;bottom=0;fixDash=0;resizeLast=0;shadow=0;fontSize=12;" vertex="1" parent="5nSqA9O4YfpTEkWZaX1V-273">
          <mxGeometry y="250" width="280" height="30" as="geometry" />
        </mxCell>
        <mxCell id="5nSqA9O4YfpTEkWZaX1V-296" value="" style="shape=partialRectangle;overflow=hidden;connectable=0;fillColor=none;top=0;left=0;bottom=0;right=0;fixDash=0;resizeLast=0;shadow=0;fontSize=12;" vertex="1" parent="5nSqA9O4YfpTEkWZaX1V-295">
          <mxGeometry width="33" height="30" as="geometry">
            <mxRectangle width="33" height="30" as="alternateBounds" />
          </mxGeometry>
        </mxCell>
        <mxCell id="5nSqA9O4YfpTEkWZaX1V-297" value="clo_coverage JSON" style="shape=partialRectangle;overflow=hidden;connectable=0;fillColor=none;top=0;left=0;bottom=0;right=0;align=left;spacingLeft=6;fixDash=0;resizeLast=0;shadow=0;fontSize=12;" vertex="1" parent="5nSqA9O4YfpTEkWZaX1V-295">
          <mxGeometry x="33" width="247" height="30" as="geometry">
            <mxRectangle width="247" height="30" as="alternateBounds" />
          </mxGeometry>
        </mxCell>
        <mxCell id="5nSqA9O4YfpTEkWZaX1V-298" value="" style="shape=partialRectangle;collapsible=0;dropTarget=0;pointerEvents=0;fillColor=none;points=[[0,0.5],[1,0.5]];portConstraint=eastwest;top=0;left=0;right=0;bottom=0;fixDash=0;resizeLast=0;shadow=0;fontSize=12;" vertex="1" parent="5nSqA9O4YfpTEkWZaX1V-273">
          <mxGeometry y="280" width="280" height="30" as="geometry" />
        </mxCell>
        <mxCell id="5nSqA9O4YfpTEkWZaX1V-299" value="" style="shape=partialRectangle;overflow=hidden;connectable=0;fillColor=none;top=0;left=0;bottom=0;right=0;fixDash=0;resizeLast=0;shadow=0;fontSize=12;" vertex="1" parent="5nSqA9O4YfpTEkWZaX1V-298">
          <mxGeometry width="33" height="30" as="geometry">
            <mxRectangle width="33" height="30" as="alternateBounds" />
          </mxGeometry>
        </mxCell>
        <mxCell id="5nSqA9O4YfpTEkWZaX1V-300" value="status ENUM(&#39;draft&#39;, &#39;submitted&#39;, &#39;approved&#39;,&#xa;&#39;finalized&#39;)" style="shape=partialRectangle;overflow=hidden;connectable=0;fillColor=none;top=0;left=0;bottom=0;right=0;align=left;spacingLeft=6;fixDash=0;resizeLast=0;shadow=0;fontSize=12;" vertex="1" parent="5nSqA9O4YfpTEkWZaX1V-298">
          <mxGeometry x="33" width="247" height="30" as="geometry">
            <mxRectangle width="247" height="30" as="alternateBounds" />
          </mxGeometry>
        </mxCell>
        <mxCell id="5nSqA9O4YfpTEkWZaX1V-301" value="" style="shape=partialRectangle;collapsible=0;dropTarget=0;pointerEvents=0;fillColor=none;points=[[0,0.5],[1,0.5]];portConstraint=eastwest;top=0;left=0;right=0;bottom=0;fixDash=0;resizeLast=0;shadow=0;fontSize=12;" vertex="1" parent="5nSqA9O4YfpTEkWZaX1V-273">
          <mxGeometry y="310" width="280" height="30" as="geometry" />
        </mxCell>
        <mxCell id="5nSqA9O4YfpTEkWZaX1V-302" value="FK" style="shape=partialRectangle;overflow=hidden;connectable=0;fillColor=none;top=0;left=0;bottom=0;right=0;fixDash=0;resizeLast=0;shadow=0;fontSize=12;" vertex="1" parent="5nSqA9O4YfpTEkWZaX1V-301">
          <mxGeometry width="33" height="30" as="geometry">
            <mxRectangle width="33" height="30" as="alternateBounds" />
          </mxGeometry>
        </mxCell>
        <mxCell id="5nSqA9O4YfpTEkWZaX1V-303" value="created_by INT" style="shape=partialRectangle;overflow=hidden;connectable=0;fillColor=none;top=0;left=0;bottom=0;right=0;align=left;spacingLeft=6;fixDash=0;resizeLast=0;shadow=0;fontSize=12;" vertex="1" parent="5nSqA9O4YfpTEkWZaX1V-301">
          <mxGeometry x="33" width="247" height="30" as="geometry">
            <mxRectangle width="247" height="30" as="alternateBounds" />
          </mxGeometry>
        </mxCell>
        <mxCell id="5nSqA9O4YfpTEkWZaX1V-304" value="" style="shape=partialRectangle;collapsible=0;dropTarget=0;pointerEvents=0;fillColor=none;points=[[0,0.5],[1,0.5]];portConstraint=eastwest;top=0;left=0;right=0;bottom=0;fixDash=0;resizeLast=0;shadow=0;fontSize=12;" vertex="1" parent="5nSqA9O4YfpTEkWZaX1V-273">
          <mxGeometry y="340" width="280" height="30" as="geometry" />
        </mxCell>
        <mxCell id="5nSqA9O4YfpTEkWZaX1V-305" value="" style="shape=partialRectangle;overflow=hidden;connectable=0;fillColor=none;top=0;left=0;bottom=0;right=0;fixDash=0;resizeLast=0;shadow=0;fontSize=12;" vertex="1" parent="5nSqA9O4YfpTEkWZaX1V-304">
          <mxGeometry width="33" height="30" as="geometry">
            <mxRectangle width="33" height="30" as="alternateBounds" />
          </mxGeometry>
        </mxCell>
        <mxCell id="5nSqA9O4YfpTEkWZaX1V-306" value="created_at DATETIME" style="shape=partialRectangle;overflow=hidden;connectable=0;fillColor=none;top=0;left=0;bottom=0;right=0;align=left;spacingLeft=6;fixDash=0;resizeLast=0;shadow=0;fontSize=12;" vertex="1" parent="5nSqA9O4YfpTEkWZaX1V-304">
          <mxGeometry x="33" width="247" height="30" as="geometry">
            <mxRectangle width="247" height="30" as="alternateBounds" />
          </mxGeometry>
        </mxCell>
        <mxCell id="5nSqA9O4YfpTEkWZaX1V-310" value="&lt;span&gt;Courses(course_id)&lt;/span&gt;" style="rounded=0;whiteSpace=wrap;html=1;fontSize=12;" vertex="1" parent="1">
          <mxGeometry x="-110" y="1580" width="110" height="30" as="geometry" />
        </mxCell>
        <mxCell id="5nSqA9O4YfpTEkWZaX1V-312" value="&lt;span data-lucid-content=&quot;{&amp;quot;t&amp;quot;:&amp;quot;Users(user_id)&amp;quot;,&amp;quot;m&amp;quot;:[{&amp;quot;s&amp;quot;:0,&amp;quot;n&amp;quot;:&amp;quot;a&amp;quot;,&amp;quot;v&amp;quot;:&amp;quot;center&amp;quot;},{&amp;quot;s&amp;quot;:0,&amp;quot;n&amp;quot;:&amp;quot;p&amp;quot;,&amp;quot;v&amp;quot;:1.2},{&amp;quot;s&amp;quot;:0,&amp;quot;n&amp;quot;:&amp;quot;fc&amp;quot;,&amp;quot;v&amp;quot;:&amp;quot;Regular&amp;quot;,&amp;quot;e&amp;quot;:14},{&amp;quot;s&amp;quot;:0,&amp;quot;n&amp;quot;:&amp;quot;fid&amp;quot;,&amp;quot;v&amp;quot;:947029,&amp;quot;e&amp;quot;:14},{&amp;quot;s&amp;quot;:0,&amp;quot;n&amp;quot;:&amp;quot;fsp&amp;quot;,&amp;quot;v&amp;quot;:&amp;quot;ss_presetShapeStyle1_textStyle&amp;quot;,&amp;quot;e&amp;quot;:14},{&amp;quot;s&amp;quot;:0,&amp;quot;n&amp;quot;:&amp;quot;s&amp;quot;,&amp;quot;v&amp;quot;:17.77777777777778,&amp;quot;e&amp;quot;:14}]}&quot; data-lucid-type=&quot;application/vnd.lucid.text&quot;&gt;&lt;span&gt;Users(user_id)&lt;/span&gt;&lt;/span&gt;" style="rounded=0;whiteSpace=wrap;html=1;fontSize=12;" vertex="1" parent="1">
          <mxGeometry x="-90" y="1820" width="90" height="30" as="geometry" />
        </mxCell>
        <mxCell id="5nSqA9O4YfpTEkWZaX1V-313" value="ExamQuestions" style="shape=table;startSize=40;container=1;collapsible=1;childLayout=tableLayout;fixedRows=1;rowLines=1;fontStyle=1;align=center;resizeLast=0;swimlaneLine=1;fixDash=0;shadow=0;fontSize=11;movable=0;resizable=0;rotatable=0;deletable=0;editable=0;locked=1;connectable=0;" vertex="1" parent="1">
          <mxGeometry x="-1" y="1920" width="281" height="130" as="geometry" />
        </mxCell>
        <mxCell id="5nSqA9O4YfpTEkWZaX1V-314" value="" style="shape=partialRectangle;collapsible=0;dropTarget=0;pointerEvents=0;fillColor=none;points=[[0,0.5],[1,0.5]];portConstraint=eastwest;top=0;left=0;right=0;bottom=1;fixDash=0;resizeLast=0;shadow=0;fontSize=12;" vertex="1" parent="5nSqA9O4YfpTEkWZaX1V-313">
          <mxGeometry y="40" width="281" height="30" as="geometry" />
        </mxCell>
        <mxCell id="5nSqA9O4YfpTEkWZaX1V-315" value="PK" style="shape=partialRectangle;overflow=hidden;connectable=0;fillColor=none;top=0;left=0;bottom=0;right=0;fontStyle=1;fixDash=0;resizeLast=0;shadow=0;fontSize=12;" vertex="1" parent="5nSqA9O4YfpTEkWZaX1V-314">
          <mxGeometry width="33" height="30" as="geometry">
            <mxRectangle width="33" height="30" as="alternateBounds" />
          </mxGeometry>
        </mxCell>
        <mxCell id="5nSqA9O4YfpTEkWZaX1V-316" value="exam_question_id INT AUTO_INCREMENT" style="shape=partialRectangle;overflow=hidden;connectable=0;fillColor=none;top=0;left=0;bottom=0;right=0;align=left;spacingLeft=6;fontStyle=1;fixDash=0;resizeLast=0;shadow=0;fontSize=12;" vertex="1" parent="5nSqA9O4YfpTEkWZaX1V-314">
          <mxGeometry x="33" width="248" height="30" as="geometry">
            <mxRectangle width="248" height="30" as="alternateBounds" />
          </mxGeometry>
        </mxCell>
        <mxCell id="5nSqA9O4YfpTEkWZaX1V-317" value="" style="shape=partialRectangle;collapsible=0;dropTarget=0;pointerEvents=0;fillColor=none;points=[[0,0.5],[1,0.5]];portConstraint=eastwest;top=0;left=0;right=0;bottom=0;fixDash=0;resizeLast=0;shadow=0;fontSize=12;" vertex="1" parent="5nSqA9O4YfpTEkWZaX1V-313">
          <mxGeometry y="70" width="281" height="30" as="geometry" />
        </mxCell>
        <mxCell id="5nSqA9O4YfpTEkWZaX1V-318" value="FK" style="shape=partialRectangle;overflow=hidden;connectable=0;fillColor=none;top=0;left=0;bottom=0;right=0;fixDash=0;resizeLast=0;shadow=0;fontSize=12;" vertex="1" parent="5nSqA9O4YfpTEkWZaX1V-317">
          <mxGeometry width="33" height="30" as="geometry">
            <mxRectangle width="33" height="30" as="alternateBounds" />
          </mxGeometry>
        </mxCell>
        <mxCell id="5nSqA9O4YfpTEkWZaX1V-319" value="exam_id INT" style="shape=partialRectangle;overflow=hidden;connectable=0;fillColor=none;top=0;left=0;bottom=0;right=0;align=left;spacingLeft=6;fixDash=0;resizeLast=0;shadow=0;fontSize=12;" vertex="1" parent="5nSqA9O4YfpTEkWZaX1V-317">
          <mxGeometry x="33" width="248" height="30" as="geometry">
            <mxRectangle width="248" height="30" as="alternateBounds" />
          </mxGeometry>
        </mxCell>
        <mxCell id="5nSqA9O4YfpTEkWZaX1V-320" value="" style="shape=partialRectangle;collapsible=0;dropTarget=0;pointerEvents=0;fillColor=none;points=[[0,0.5],[1,0.5]];portConstraint=eastwest;top=0;left=0;right=0;bottom=0;fixDash=0;resizeLast=0;shadow=0;fontSize=12;" vertex="1" parent="5nSqA9O4YfpTEkWZaX1V-313">
          <mxGeometry y="100" width="281" height="30" as="geometry" />
        </mxCell>
        <mxCell id="5nSqA9O4YfpTEkWZaX1V-321" value="FK" style="shape=partialRectangle;overflow=hidden;connectable=0;fillColor=none;top=0;left=0;bottom=0;right=0;fixDash=0;resizeLast=0;shadow=0;fontSize=12;" vertex="1" parent="5nSqA9O4YfpTEkWZaX1V-320">
          <mxGeometry width="33" height="30" as="geometry">
            <mxRectangle width="33" height="30" as="alternateBounds" />
          </mxGeometry>
        </mxCell>
        <mxCell id="5nSqA9O4YfpTEkWZaX1V-322" value="question_id INT" style="shape=partialRectangle;overflow=hidden;connectable=0;fillColor=none;top=0;left=0;bottom=0;right=0;align=left;spacingLeft=6;fixDash=0;resizeLast=0;shadow=0;fontSize=12;" vertex="1" parent="5nSqA9O4YfpTEkWZaX1V-320">
          <mxGeometry x="33" width="248" height="30" as="geometry">
            <mxRectangle width="248" height="30" as="alternateBounds" />
          </mxGeometry>
        </mxCell>
        <mxCell id="5nSqA9O4YfpTEkWZaX1V-347" value="Plans" style="shape=table;startSize=40;container=1;collapsible=1;childLayout=tableLayout;fixedRows=1;rowLines=1;fontStyle=1;align=center;resizeLast=0;swimlaneLine=1;fixDash=0;shadow=0;fontSize=11;movable=0;resizable=0;rotatable=0;deletable=0;editable=0;locked=1;connectable=0;" vertex="1" parent="1">
          <mxGeometry x="570" width="280" height="190" as="geometry" />
        </mxCell>
        <mxCell id="5nSqA9O4YfpTEkWZaX1V-348" value="" style="shape=partialRectangle;collapsible=0;dropTarget=0;pointerEvents=0;fillColor=none;points=[[0,0.5],[1,0.5]];portConstraint=eastwest;top=0;left=0;right=0;bottom=1;fixDash=0;resizeLast=0;shadow=0;fontSize=12;" vertex="1" parent="5nSqA9O4YfpTEkWZaX1V-347">
          <mxGeometry y="40" width="280" height="30" as="geometry" />
        </mxCell>
        <mxCell id="5nSqA9O4YfpTEkWZaX1V-349" value="PK" style="shape=partialRectangle;overflow=hidden;connectable=0;fillColor=none;top=0;left=0;bottom=0;right=0;fontStyle=1;fixDash=0;resizeLast=0;shadow=0;fontSize=12;" vertex="1" parent="5nSqA9O4YfpTEkWZaX1V-348">
          <mxGeometry width="33" height="30" as="geometry">
            <mxRectangle width="33" height="30" as="alternateBounds" />
          </mxGeometry>
        </mxCell>
        <mxCell id="5nSqA9O4YfpTEkWZaX1V-350" value="plan_id INT AUTO_INCREMENT" style="shape=partialRectangle;overflow=hidden;connectable=0;fillColor=none;top=0;left=0;bottom=0;right=0;align=left;spacingLeft=6;fontStyle=1;fixDash=0;resizeLast=0;shadow=0;fontSize=12;" vertex="1" parent="5nSqA9O4YfpTEkWZaX1V-348">
          <mxGeometry x="33" width="247" height="30" as="geometry">
            <mxRectangle width="247" height="30" as="alternateBounds" />
          </mxGeometry>
        </mxCell>
        <mxCell id="5nSqA9O4YfpTEkWZaX1V-351" value="" style="shape=partialRectangle;collapsible=0;dropTarget=0;pointerEvents=0;fillColor=none;points=[[0,0.5],[1,0.5]];portConstraint=eastwest;top=0;left=0;right=0;bottom=0;fixDash=0;resizeLast=0;shadow=0;fontSize=12;" vertex="1" parent="5nSqA9O4YfpTEkWZaX1V-347">
          <mxGeometry y="70" width="280" height="30" as="geometry" />
        </mxCell>
        <mxCell id="5nSqA9O4YfpTEkWZaX1V-352" value="FK" style="shape=partialRectangle;overflow=hidden;connectable=0;fillColor=none;top=0;left=0;bottom=0;right=0;fixDash=0;resizeLast=0;shadow=0;fontSize=12;" vertex="1" parent="5nSqA9O4YfpTEkWZaX1V-351">
          <mxGeometry width="33" height="30" as="geometry">
            <mxRectangle width="33" height="30" as="alternateBounds" />
          </mxGeometry>
        </mxCell>
        <mxCell id="5nSqA9O4YfpTEkWZaX1V-353" value="course_id INT" style="shape=partialRectangle;overflow=hidden;connectable=0;fillColor=none;top=0;left=0;bottom=0;right=0;align=left;spacingLeft=6;fixDash=0;resizeLast=0;shadow=0;fontSize=12;" vertex="1" parent="5nSqA9O4YfpTEkWZaX1V-351">
          <mxGeometry x="33" width="247" height="30" as="geometry">
            <mxRectangle width="247" height="30" as="alternateBounds" />
          </mxGeometry>
        </mxCell>
        <mxCell id="5nSqA9O4YfpTEkWZaX1V-354" value="" style="shape=partialRectangle;collapsible=0;dropTarget=0;pointerEvents=0;fillColor=none;points=[[0,0.5],[1,0.5]];portConstraint=eastwest;top=0;left=0;right=0;bottom=0;fixDash=0;resizeLast=0;shadow=0;fontSize=12;" vertex="1" parent="5nSqA9O4YfpTEkWZaX1V-347">
          <mxGeometry y="100" width="280" height="30" as="geometry" />
        </mxCell>
        <mxCell id="5nSqA9O4YfpTEkWZaX1V-355" value="" style="shape=partialRectangle;overflow=hidden;connectable=0;fillColor=none;top=0;left=0;bottom=0;right=0;fixDash=0;resizeLast=0;shadow=0;fontSize=12;" vertex="1" parent="5nSqA9O4YfpTEkWZaX1V-354">
          <mxGeometry width="33" height="30" as="geometry">
            <mxRectangle width="33" height="30" as="alternateBounds" />
          </mxGeometry>
        </mxCell>
        <mxCell id="5nSqA9O4YfpTEkWZaX1V-356" value="total_questions INT" style="shape=partialRectangle;overflow=hidden;connectable=0;fillColor=none;top=0;left=0;bottom=0;right=0;align=left;spacingLeft=6;fixDash=0;resizeLast=0;shadow=0;fontSize=12;" vertex="1" parent="5nSqA9O4YfpTEkWZaX1V-354">
          <mxGeometry x="33" width="247" height="30" as="geometry">
            <mxRectangle width="247" height="30" as="alternateBounds" />
          </mxGeometry>
        </mxCell>
        <mxCell id="5nSqA9O4YfpTEkWZaX1V-357" value="" style="shape=partialRectangle;collapsible=0;dropTarget=0;pointerEvents=0;fillColor=none;points=[[0,0.5],[1,0.5]];portConstraint=eastwest;top=0;left=0;right=0;bottom=0;fixDash=0;resizeLast=0;shadow=0;fontSize=12;" vertex="1" parent="5nSqA9O4YfpTEkWZaX1V-347">
          <mxGeometry y="130" width="280" height="30" as="geometry" />
        </mxCell>
        <mxCell id="5nSqA9O4YfpTEkWZaX1V-358" value="FK" style="shape=partialRectangle;overflow=hidden;connectable=0;fillColor=none;top=0;left=0;bottom=0;right=0;fixDash=0;resizeLast=0;shadow=0;fontSize=12;" vertex="1" parent="5nSqA9O4YfpTEkWZaX1V-357">
          <mxGeometry width="33" height="30" as="geometry">
            <mxRectangle width="33" height="30" as="alternateBounds" />
          </mxGeometry>
        </mxCell>
        <mxCell id="5nSqA9O4YfpTEkWZaX1V-359" value="user_id INT" style="shape=partialRectangle;overflow=hidden;connectable=0;fillColor=none;top=0;left=0;bottom=0;right=0;align=left;spacingLeft=6;fixDash=0;resizeLast=0;shadow=0;fontSize=12;" vertex="1" parent="5nSqA9O4YfpTEkWZaX1V-357">
          <mxGeometry x="33" width="247" height="30" as="geometry">
            <mxRectangle width="247" height="30" as="alternateBounds" />
          </mxGeometry>
        </mxCell>
        <mxCell id="5nSqA9O4YfpTEkWZaX1V-360" value="" style="shape=partialRectangle;collapsible=0;dropTarget=0;pointerEvents=0;fillColor=none;points=[[0,0.5],[1,0.5]];portConstraint=eastwest;top=0;left=0;right=0;bottom=0;fixDash=0;resizeLast=0;shadow=0;fontSize=12;" vertex="1" parent="5nSqA9O4YfpTEkWZaX1V-347">
          <mxGeometry y="160" width="280" height="30" as="geometry" />
        </mxCell>
        <mxCell id="5nSqA9O4YfpTEkWZaX1V-361" value="" style="shape=partialRectangle;overflow=hidden;connectable=0;fillColor=none;top=0;left=0;bottom=0;right=0;fixDash=0;resizeLast=0;shadow=0;fontSize=12;" vertex="1" parent="5nSqA9O4YfpTEkWZaX1V-360">
          <mxGeometry width="33" height="30" as="geometry">
            <mxRectangle width="33" height="30" as="alternateBounds" />
          </mxGeometry>
        </mxCell>
        <mxCell id="5nSqA9O4YfpTEkWZaX1V-362" value="assigned_at DATETIME" style="shape=partialRectangle;overflow=hidden;connectable=0;fillColor=none;top=0;left=0;bottom=0;right=0;align=left;spacingLeft=6;fixDash=0;resizeLast=0;shadow=0;fontSize=12;" vertex="1" parent="5nSqA9O4YfpTEkWZaX1V-360">
          <mxGeometry x="33" width="247" height="30" as="geometry">
            <mxRectangle width="247" height="30" as="alternateBounds" />
          </mxGeometry>
        </mxCell>
        <mxCell id="5nSqA9O4YfpTEkWZaX1V-381" value="Exams(exam_id)" style="rounded=0;whiteSpace=wrap;html=1;fontSize=12;" vertex="1" parent="1">
          <mxGeometry x="-100" y="1990" width="99" height="30" as="geometry" />
        </mxCell>
        <mxCell id="5nSqA9O4YfpTEkWZaX1V-384" value="Questions(question_id)" style="rounded=0;whiteSpace=wrap;html=1;fontSize=12;" vertex="1" parent="1">
          <mxGeometry x="-130" y="2020" width="129" height="30" as="geometry" />
        </mxCell>
        <mxCell id="5nSqA9O4YfpTEkWZaX1V-386" value="&lt;span data-lucid-content=&quot;{&amp;quot;t&amp;quot;:&amp;quot;Courses(course_id)&amp;quot;,&amp;quot;m&amp;quot;:[{&amp;quot;s&amp;quot;:0,&amp;quot;n&amp;quot;:&amp;quot;a&amp;quot;,&amp;quot;v&amp;quot;:&amp;quot;center&amp;quot;},{&amp;quot;s&amp;quot;:0,&amp;quot;n&amp;quot;:&amp;quot;od&amp;quot;,&amp;quot;v&amp;quot;:1},{&amp;quot;s&amp;quot;:0,&amp;quot;n&amp;quot;:&amp;quot;p&amp;quot;,&amp;quot;v&amp;quot;:0.9583333333333333},{&amp;quot;s&amp;quot;:0,&amp;quot;n&amp;quot;:&amp;quot;fc&amp;quot;,&amp;quot;v&amp;quot;:&amp;quot;Regular&amp;quot;,&amp;quot;e&amp;quot;:18},{&amp;quot;s&amp;quot;:0,&amp;quot;n&amp;quot;:&amp;quot;fid&amp;quot;,&amp;quot;v&amp;quot;:947029,&amp;quot;e&amp;quot;:18},{&amp;quot;s&amp;quot;:0,&amp;quot;n&amp;quot;:&amp;quot;s&amp;quot;,&amp;quot;v&amp;quot;:17.77777777777778,&amp;quot;e&amp;quot;:18}]}&quot; data-lucid-type=&quot;application/vnd.lucid.text&quot;&gt;&lt;span&gt;Courses(course_id)&lt;/span&gt;&lt;/span&gt;" style="rounded=0;whiteSpace=wrap;html=1;fontSize=12;" vertex="1" parent="1">
          <mxGeometry x="460" y="70" width="110" height="30" as="geometry" />
        </mxCell>
        <mxCell id="5nSqA9O4YfpTEkWZaX1V-389" value="&lt;span data-lucid-content=&quot;{&amp;quot;t&amp;quot;:&amp;quot;Users(user_id)&amp;quot;,&amp;quot;m&amp;quot;:[{&amp;quot;s&amp;quot;:0,&amp;quot;n&amp;quot;:&amp;quot;a&amp;quot;,&amp;quot;v&amp;quot;:&amp;quot;center&amp;quot;},{&amp;quot;s&amp;quot;:0,&amp;quot;n&amp;quot;:&amp;quot;p&amp;quot;,&amp;quot;v&amp;quot;:1.2},{&amp;quot;s&amp;quot;:0,&amp;quot;n&amp;quot;:&amp;quot;fc&amp;quot;,&amp;quot;v&amp;quot;:&amp;quot;Regular&amp;quot;,&amp;quot;e&amp;quot;:14},{&amp;quot;s&amp;quot;:0,&amp;quot;n&amp;quot;:&amp;quot;fid&amp;quot;,&amp;quot;v&amp;quot;:947029,&amp;quot;e&amp;quot;:14},{&amp;quot;s&amp;quot;:0,&amp;quot;n&amp;quot;:&amp;quot;fsp&amp;quot;,&amp;quot;v&amp;quot;:&amp;quot;ss_presetShapeStyle1_textStyle&amp;quot;,&amp;quot;e&amp;quot;:14},{&amp;quot;s&amp;quot;:0,&amp;quot;n&amp;quot;:&amp;quot;s&amp;quot;,&amp;quot;v&amp;quot;:17.77777777777778,&amp;quot;e&amp;quot;:14}]}&quot; data-lucid-type=&quot;application/vnd.lucid.text&quot;&gt;&lt;span&gt;Users(user_id)&lt;/span&gt;&lt;/span&gt;" style="rounded=0;whiteSpace=wrap;html=1;fontSize=12;" vertex="1" parent="1">
          <mxGeometry x="480" y="130" width="90" height="30" as="geometry" />
        </mxCell>
        <mxCell id="5nSqA9O4YfpTEkWZaX1V-400" value="PlanAssignments" style="shape=table;startSize=40;container=1;collapsible=1;childLayout=tableLayout;fixedRows=1;rowLines=1;fontStyle=1;align=center;resizeLast=0;swimlaneLine=1;fixDash=0;shadow=0;fontSize=11;movable=0;resizable=0;rotatable=0;deletable=0;editable=0;locked=1;connectable=0;" vertex="1" parent="1">
          <mxGeometry x="569" y="230" width="281" height="190" as="geometry" />
        </mxCell>
        <mxCell id="5nSqA9O4YfpTEkWZaX1V-401" value="" style="shape=partialRectangle;collapsible=0;dropTarget=0;pointerEvents=0;fillColor=none;points=[[0,0.5],[1,0.5]];portConstraint=eastwest;top=0;left=0;right=0;bottom=1;fixDash=0;resizeLast=0;shadow=0;fontSize=12;" vertex="1" parent="5nSqA9O4YfpTEkWZaX1V-400">
          <mxGeometry y="40" width="281" height="30" as="geometry" />
        </mxCell>
        <mxCell id="5nSqA9O4YfpTEkWZaX1V-402" value="PK" style="shape=partialRectangle;overflow=hidden;connectable=0;fillColor=none;top=0;left=0;bottom=0;right=0;fontStyle=1;fixDash=0;resizeLast=0;shadow=0;fontSize=12;" vertex="1" parent="5nSqA9O4YfpTEkWZaX1V-401">
          <mxGeometry width="33" height="30" as="geometry">
            <mxRectangle width="33" height="30" as="alternateBounds" />
          </mxGeometry>
        </mxCell>
        <mxCell id="5nSqA9O4YfpTEkWZaX1V-403" value="assignment_id INT AUTO_INCREMENT" style="shape=partialRectangle;overflow=hidden;connectable=0;fillColor=none;top=0;left=0;bottom=0;right=0;align=left;spacingLeft=6;fontStyle=1;fixDash=0;resizeLast=0;shadow=0;fontSize=12;" vertex="1" parent="5nSqA9O4YfpTEkWZaX1V-401">
          <mxGeometry x="33" width="248" height="30" as="geometry">
            <mxRectangle width="248" height="30" as="alternateBounds" />
          </mxGeometry>
        </mxCell>
        <mxCell id="5nSqA9O4YfpTEkWZaX1V-404" value="" style="shape=partialRectangle;collapsible=0;dropTarget=0;pointerEvents=0;fillColor=none;points=[[0,0.5],[1,0.5]];portConstraint=eastwest;top=0;left=0;right=0;bottom=0;fixDash=0;resizeLast=0;shadow=0;fontSize=12;" vertex="1" parent="5nSqA9O4YfpTEkWZaX1V-400">
          <mxGeometry y="70" width="281" height="30" as="geometry" />
        </mxCell>
        <mxCell id="5nSqA9O4YfpTEkWZaX1V-405" value="FK" style="shape=partialRectangle;overflow=hidden;connectable=0;fillColor=none;top=0;left=0;bottom=0;right=0;fixDash=0;resizeLast=0;shadow=0;fontSize=12;" vertex="1" parent="5nSqA9O4YfpTEkWZaX1V-404">
          <mxGeometry width="33" height="30" as="geometry">
            <mxRectangle width="33" height="30" as="alternateBounds" />
          </mxGeometry>
        </mxCell>
        <mxCell id="5nSqA9O4YfpTEkWZaX1V-406" value="plan_id INT" style="shape=partialRectangle;overflow=hidden;connectable=0;fillColor=none;top=0;left=0;bottom=0;right=0;align=left;spacingLeft=6;fixDash=0;resizeLast=0;shadow=0;fontSize=12;" vertex="1" parent="5nSqA9O4YfpTEkWZaX1V-404">
          <mxGeometry x="33" width="248" height="30" as="geometry">
            <mxRectangle width="248" height="30" as="alternateBounds" />
          </mxGeometry>
        </mxCell>
        <mxCell id="5nSqA9O4YfpTEkWZaX1V-407" value="" style="shape=partialRectangle;collapsible=0;dropTarget=0;pointerEvents=0;fillColor=none;points=[[0,0.5],[1,0.5]];portConstraint=eastwest;top=0;left=0;right=0;bottom=0;fixDash=0;resizeLast=0;shadow=0;fontSize=12;" vertex="1" parent="5nSqA9O4YfpTEkWZaX1V-400">
          <mxGeometry y="100" width="281" height="30" as="geometry" />
        </mxCell>
        <mxCell id="5nSqA9O4YfpTEkWZaX1V-408" value="FK" style="shape=partialRectangle;overflow=hidden;connectable=0;fillColor=none;top=0;left=0;bottom=0;right=0;fixDash=0;resizeLast=0;shadow=0;fontSize=12;" vertex="1" parent="5nSqA9O4YfpTEkWZaX1V-407">
          <mxGeometry width="33" height="30" as="geometry">
            <mxRectangle width="33" height="30" as="alternateBounds" />
          </mxGeometry>
        </mxCell>
        <mxCell id="5nSqA9O4YfpTEkWZaX1V-409" value="assigned_to INT" style="shape=partialRectangle;overflow=hidden;connectable=0;fillColor=none;top=0;left=0;bottom=0;right=0;align=left;spacingLeft=6;fixDash=0;resizeLast=0;shadow=0;fontSize=12;" vertex="1" parent="5nSqA9O4YfpTEkWZaX1V-407">
          <mxGeometry x="33" width="248" height="30" as="geometry">
            <mxRectangle width="248" height="30" as="alternateBounds" />
          </mxGeometry>
        </mxCell>
        <mxCell id="5nSqA9O4YfpTEkWZaX1V-410" value="" style="shape=partialRectangle;collapsible=0;dropTarget=0;pointerEvents=0;fillColor=none;points=[[0,0.5],[1,0.5]];portConstraint=eastwest;top=0;left=0;right=0;bottom=0;fixDash=0;resizeLast=0;shadow=0;fontSize=12;" vertex="1" parent="5nSqA9O4YfpTEkWZaX1V-400">
          <mxGeometry y="130" width="281" height="30" as="geometry" />
        </mxCell>
        <mxCell id="5nSqA9O4YfpTEkWZaX1V-411" value="FK" style="shape=partialRectangle;overflow=hidden;connectable=0;fillColor=none;top=0;left=0;bottom=0;right=0;fixDash=0;resizeLast=0;shadow=0;fontSize=12;" vertex="1" parent="5nSqA9O4YfpTEkWZaX1V-410">
          <mxGeometry width="33" height="30" as="geometry">
            <mxRectangle width="33" height="30" as="alternateBounds" />
          </mxGeometry>
        </mxCell>
        <mxCell id="5nSqA9O4YfpTEkWZaX1V-412" value="assigned_by INT" style="shape=partialRectangle;overflow=hidden;connectable=0;fillColor=none;top=0;left=0;bottom=0;right=0;align=left;spacingLeft=6;fixDash=0;resizeLast=0;shadow=0;fontSize=12;" vertex="1" parent="5nSqA9O4YfpTEkWZaX1V-410">
          <mxGeometry x="33" width="248" height="30" as="geometry">
            <mxRectangle width="248" height="30" as="alternateBounds" />
          </mxGeometry>
        </mxCell>
        <mxCell id="5nSqA9O4YfpTEkWZaX1V-413" value="" style="shape=partialRectangle;collapsible=0;dropTarget=0;pointerEvents=0;fillColor=none;points=[[0,0.5],[1,0.5]];portConstraint=eastwest;top=0;left=0;right=0;bottom=0;fixDash=0;resizeLast=0;shadow=0;fontSize=12;" vertex="1" parent="5nSqA9O4YfpTEkWZaX1V-400">
          <mxGeometry y="160" width="281" height="30" as="geometry" />
        </mxCell>
        <mxCell id="5nSqA9O4YfpTEkWZaX1V-414" value="" style="shape=partialRectangle;overflow=hidden;connectable=0;fillColor=none;top=0;left=0;bottom=0;right=0;fixDash=0;resizeLast=0;shadow=0;fontSize=12;" vertex="1" parent="5nSqA9O4YfpTEkWZaX1V-413">
          <mxGeometry width="33" height="30" as="geometry">
            <mxRectangle width="33" height="30" as="alternateBounds" />
          </mxGeometry>
        </mxCell>
        <mxCell id="5nSqA9O4YfpTEkWZaX1V-415" value="assigned_at DATETIME" style="shape=partialRectangle;overflow=hidden;connectable=0;fillColor=none;top=0;left=0;bottom=0;right=0;align=left;spacingLeft=6;fixDash=0;resizeLast=0;shadow=0;fontSize=12;" vertex="1" parent="5nSqA9O4YfpTEkWZaX1V-413">
          <mxGeometry x="33" width="248" height="30" as="geometry">
            <mxRectangle width="248" height="30" as="alternateBounds" />
          </mxGeometry>
        </mxCell>
        <mxCell id="5nSqA9O4YfpTEkWZaX1V-416" value="&lt;span data-lucid-type=&quot;application/vnd.lucid.text&quot; data-lucid-content=&quot;{&amp;quot;t&amp;quot;:&amp;quot;Plans(plan_id)&amp;quot;,&amp;quot;m&amp;quot;:[{&amp;quot;s&amp;quot;:0,&amp;quot;n&amp;quot;:&amp;quot;a&amp;quot;,&amp;quot;v&amp;quot;:&amp;quot;center&amp;quot;},{&amp;quot;s&amp;quot;:0,&amp;quot;n&amp;quot;:&amp;quot;p&amp;quot;,&amp;quot;v&amp;quot;:0.9583333333333333},{&amp;quot;s&amp;quot;:0,&amp;quot;n&amp;quot;:&amp;quot;fc&amp;quot;,&amp;quot;v&amp;quot;:&amp;quot;Regular&amp;quot;,&amp;quot;e&amp;quot;:14},{&amp;quot;s&amp;quot;:0,&amp;quot;n&amp;quot;:&amp;quot;fid&amp;quot;,&amp;quot;v&amp;quot;:947029,&amp;quot;e&amp;quot;:14},{&amp;quot;s&amp;quot;:0,&amp;quot;n&amp;quot;:&amp;quot;s&amp;quot;,&amp;quot;v&amp;quot;:17.77777777777778,&amp;quot;e&amp;quot;:14}]}&quot;&gt;&lt;span&gt;Plans(plan_id)&lt;/span&gt;&lt;/span&gt;" style="rounded=0;whiteSpace=wrap;html=1;fontSize=12;" vertex="1" parent="1">
          <mxGeometry x="470" y="300" width="99" height="30" as="geometry" />
        </mxCell>
        <mxCell id="5nSqA9O4YfpTEkWZaX1V-417" value="&lt;span data-lucid-content=&quot;{&amp;quot;t&amp;quot;:&amp;quot;Users(user_id)&amp;quot;,&amp;quot;m&amp;quot;:[{&amp;quot;s&amp;quot;:0,&amp;quot;n&amp;quot;:&amp;quot;a&amp;quot;,&amp;quot;v&amp;quot;:&amp;quot;center&amp;quot;},{&amp;quot;s&amp;quot;:0,&amp;quot;n&amp;quot;:&amp;quot;p&amp;quot;,&amp;quot;v&amp;quot;:1.2},{&amp;quot;s&amp;quot;:0,&amp;quot;n&amp;quot;:&amp;quot;fc&amp;quot;,&amp;quot;v&amp;quot;:&amp;quot;Regular&amp;quot;,&amp;quot;e&amp;quot;:14},{&amp;quot;s&amp;quot;:0,&amp;quot;n&amp;quot;:&amp;quot;fid&amp;quot;,&amp;quot;v&amp;quot;:947029,&amp;quot;e&amp;quot;:14},{&amp;quot;s&amp;quot;:0,&amp;quot;n&amp;quot;:&amp;quot;fsp&amp;quot;,&amp;quot;v&amp;quot;:&amp;quot;ss_presetShapeStyle1_textStyle&amp;quot;,&amp;quot;e&amp;quot;:14},{&amp;quot;s&amp;quot;:0,&amp;quot;n&amp;quot;:&amp;quot;s&amp;quot;,&amp;quot;v&amp;quot;:17.77777777777778,&amp;quot;e&amp;quot;:14}]}&quot; data-lucid-type=&quot;application/vnd.lucid.text&quot;&gt;&lt;span&gt;Users(user_id)&lt;/span&gt;&lt;/span&gt;" style="rounded=0;whiteSpace=wrap;html=1;fontSize=12;" vertex="1" parent="1">
          <mxGeometry x="479" y="330" width="90" height="30" as="geometry" />
        </mxCell>
        <mxCell id="5nSqA9O4YfpTEkWZaX1V-418" value="&lt;span data-lucid-content=&quot;{&amp;quot;t&amp;quot;:&amp;quot;Users(user_id)&amp;quot;,&amp;quot;m&amp;quot;:[{&amp;quot;s&amp;quot;:0,&amp;quot;n&amp;quot;:&amp;quot;a&amp;quot;,&amp;quot;v&amp;quot;:&amp;quot;center&amp;quot;},{&amp;quot;s&amp;quot;:0,&amp;quot;n&amp;quot;:&amp;quot;p&amp;quot;,&amp;quot;v&amp;quot;:1.2},{&amp;quot;s&amp;quot;:0,&amp;quot;n&amp;quot;:&amp;quot;fc&amp;quot;,&amp;quot;v&amp;quot;:&amp;quot;Regular&amp;quot;,&amp;quot;e&amp;quot;:14},{&amp;quot;s&amp;quot;:0,&amp;quot;n&amp;quot;:&amp;quot;fid&amp;quot;,&amp;quot;v&amp;quot;:947029,&amp;quot;e&amp;quot;:14},{&amp;quot;s&amp;quot;:0,&amp;quot;n&amp;quot;:&amp;quot;fsp&amp;quot;,&amp;quot;v&amp;quot;:&amp;quot;ss_presetShapeStyle1_textStyle&amp;quot;,&amp;quot;e&amp;quot;:14},{&amp;quot;s&amp;quot;:0,&amp;quot;n&amp;quot;:&amp;quot;s&amp;quot;,&amp;quot;v&amp;quot;:17.77777777777778,&amp;quot;e&amp;quot;:14}]}&quot; data-lucid-type=&quot;application/vnd.lucid.text&quot;&gt;&lt;span&gt;Users(user_id)&lt;/span&gt;&lt;/span&gt;" style="rounded=0;whiteSpace=wrap;html=1;fontSize=12;" vertex="1" parent="1">
          <mxGeometry x="479" y="360" width="90" height="30" as="geometry" />
        </mxCell>
        <mxCell id="5nSqA9O4YfpTEkWZaX1V-419" value="ExamSubmissions" style="shape=table;startSize=40;container=1;collapsible=1;childLayout=tableLayout;fixedRows=1;rowLines=1;fontStyle=1;align=center;resizeLast=0;swimlaneLine=1;fixDash=0;shadow=0;fontSize=11;movable=0;resizable=0;rotatable=0;deletable=0;editable=0;locked=1;connectable=0;" vertex="1" parent="1">
          <mxGeometry x="569" y="460" width="281" height="190" as="geometry" />
        </mxCell>
        <mxCell id="5nSqA9O4YfpTEkWZaX1V-420" value="" style="shape=partialRectangle;collapsible=0;dropTarget=0;pointerEvents=0;fillColor=none;points=[[0,0.5],[1,0.5]];portConstraint=eastwest;top=0;left=0;right=0;bottom=1;fixDash=0;resizeLast=0;shadow=0;fontSize=12;" vertex="1" parent="5nSqA9O4YfpTEkWZaX1V-419">
          <mxGeometry y="40" width="281" height="30" as="geometry" />
        </mxCell>
        <mxCell id="5nSqA9O4YfpTEkWZaX1V-421" value="PK" style="shape=partialRectangle;overflow=hidden;connectable=0;fillColor=none;top=0;left=0;bottom=0;right=0;fontStyle=1;fixDash=0;resizeLast=0;shadow=0;fontSize=12;" vertex="1" parent="5nSqA9O4YfpTEkWZaX1V-420">
          <mxGeometry width="33" height="30" as="geometry">
            <mxRectangle width="33" height="30" as="alternateBounds" />
          </mxGeometry>
        </mxCell>
        <mxCell id="5nSqA9O4YfpTEkWZaX1V-422" value="submission_id INT AUTO_INCREMENT" style="shape=partialRectangle;overflow=hidden;connectable=0;fillColor=none;top=0;left=0;bottom=0;right=0;align=left;spacingLeft=6;fontStyle=1;fixDash=0;resizeLast=0;shadow=0;fontSize=12;" vertex="1" parent="5nSqA9O4YfpTEkWZaX1V-420">
          <mxGeometry x="33" width="248" height="30" as="geometry">
            <mxRectangle width="248" height="30" as="alternateBounds" />
          </mxGeometry>
        </mxCell>
        <mxCell id="5nSqA9O4YfpTEkWZaX1V-423" value="" style="shape=partialRectangle;collapsible=0;dropTarget=0;pointerEvents=0;fillColor=none;points=[[0,0.5],[1,0.5]];portConstraint=eastwest;top=0;left=0;right=0;bottom=0;fixDash=0;resizeLast=0;shadow=0;fontSize=12;" vertex="1" parent="5nSqA9O4YfpTEkWZaX1V-419">
          <mxGeometry y="70" width="281" height="30" as="geometry" />
        </mxCell>
        <mxCell id="5nSqA9O4YfpTEkWZaX1V-424" value="FK" style="shape=partialRectangle;overflow=hidden;connectable=0;fillColor=none;top=0;left=0;bottom=0;right=0;fixDash=0;resizeLast=0;shadow=0;fontSize=12;" vertex="1" parent="5nSqA9O4YfpTEkWZaX1V-423">
          <mxGeometry width="33" height="30" as="geometry">
            <mxRectangle width="33" height="30" as="alternateBounds" />
          </mxGeometry>
        </mxCell>
        <mxCell id="5nSqA9O4YfpTEkWZaX1V-425" value="submitted_by INT" style="shape=partialRectangle;overflow=hidden;connectable=0;fillColor=none;top=0;left=0;bottom=0;right=0;align=left;spacingLeft=6;fixDash=0;resizeLast=0;shadow=0;fontSize=12;" vertex="1" parent="5nSqA9O4YfpTEkWZaX1V-423">
          <mxGeometry x="33" width="248" height="30" as="geometry">
            <mxRectangle width="248" height="30" as="alternateBounds" />
          </mxGeometry>
        </mxCell>
        <mxCell id="5nSqA9O4YfpTEkWZaX1V-426" value="" style="shape=partialRectangle;collapsible=0;dropTarget=0;pointerEvents=0;fillColor=none;points=[[0,0.5],[1,0.5]];portConstraint=eastwest;top=0;left=0;right=0;bottom=0;fixDash=0;resizeLast=0;shadow=0;fontSize=12;" vertex="1" parent="5nSqA9O4YfpTEkWZaX1V-419">
          <mxGeometry y="100" width="281" height="30" as="geometry" />
        </mxCell>
        <mxCell id="5nSqA9O4YfpTEkWZaX1V-427" value="FK" style="shape=partialRectangle;overflow=hidden;connectable=0;fillColor=none;top=0;left=0;bottom=0;right=0;fixDash=0;resizeLast=0;shadow=0;fontSize=12;" vertex="1" parent="5nSqA9O4YfpTEkWZaX1V-426">
          <mxGeometry width="33" height="30" as="geometry">
            <mxRectangle width="33" height="30" as="alternateBounds" />
          </mxGeometry>
        </mxCell>
        <mxCell id="5nSqA9O4YfpTEkWZaX1V-428" value="course_id INT" style="shape=partialRectangle;overflow=hidden;connectable=0;fillColor=none;top=0;left=0;bottom=0;right=0;align=left;spacingLeft=6;fixDash=0;resizeLast=0;shadow=0;fontSize=12;" vertex="1" parent="5nSqA9O4YfpTEkWZaX1V-426">
          <mxGeometry x="33" width="248" height="30" as="geometry">
            <mxRectangle width="248" height="30" as="alternateBounds" />
          </mxGeometry>
        </mxCell>
        <mxCell id="5nSqA9O4YfpTEkWZaX1V-429" value="" style="shape=partialRectangle;collapsible=0;dropTarget=0;pointerEvents=0;fillColor=none;points=[[0,0.5],[1,0.5]];portConstraint=eastwest;top=0;left=0;right=0;bottom=0;fixDash=0;resizeLast=0;shadow=0;fontSize=12;" vertex="1" parent="5nSqA9O4YfpTEkWZaX1V-419">
          <mxGeometry y="130" width="281" height="30" as="geometry" />
        </mxCell>
        <mxCell id="5nSqA9O4YfpTEkWZaX1V-430" value="" style="shape=partialRectangle;overflow=hidden;connectable=0;fillColor=none;top=0;left=0;bottom=0;right=0;fixDash=0;resizeLast=0;shadow=0;fontSize=12;" vertex="1" parent="5nSqA9O4YfpTEkWZaX1V-429">
          <mxGeometry width="33" height="30" as="geometry">
            <mxRectangle width="33" height="30" as="alternateBounds" />
          </mxGeometry>
        </mxCell>
        <mxCell id="5nSqA9O4YfpTEkWZaX1V-431" value="status ENUM(&#39;submitted&#39;, &#39;reviewed&#39;, &#39;approved&#39;)" style="shape=partialRectangle;overflow=hidden;connectable=0;fillColor=none;top=0;left=0;bottom=0;right=0;align=left;spacingLeft=6;fixDash=0;resizeLast=0;shadow=0;fontSize=12;" vertex="1" parent="5nSqA9O4YfpTEkWZaX1V-429">
          <mxGeometry x="33" width="248" height="30" as="geometry">
            <mxRectangle width="248" height="30" as="alternateBounds" />
          </mxGeometry>
        </mxCell>
        <mxCell id="5nSqA9O4YfpTEkWZaX1V-432" value="" style="shape=partialRectangle;collapsible=0;dropTarget=0;pointerEvents=0;fillColor=none;points=[[0,0.5],[1,0.5]];portConstraint=eastwest;top=0;left=0;right=0;bottom=0;fixDash=0;resizeLast=0;shadow=0;fontSize=12;" vertex="1" parent="5nSqA9O4YfpTEkWZaX1V-419">
          <mxGeometry y="160" width="281" height="30" as="geometry" />
        </mxCell>
        <mxCell id="5nSqA9O4YfpTEkWZaX1V-433" value="" style="shape=partialRectangle;overflow=hidden;connectable=0;fillColor=none;top=0;left=0;bottom=0;right=0;fixDash=0;resizeLast=0;shadow=0;fontSize=12;" vertex="1" parent="5nSqA9O4YfpTEkWZaX1V-432">
          <mxGeometry width="33" height="30" as="geometry">
            <mxRectangle width="33" height="30" as="alternateBounds" />
          </mxGeometry>
        </mxCell>
        <mxCell id="5nSqA9O4YfpTEkWZaX1V-434" value="submitted_at DATETIME" style="shape=partialRectangle;overflow=hidden;connectable=0;fillColor=none;top=0;left=0;bottom=0;right=0;align=left;spacingLeft=6;fixDash=0;resizeLast=0;shadow=0;fontSize=12;" vertex="1" parent="5nSqA9O4YfpTEkWZaX1V-432">
          <mxGeometry x="33" width="248" height="30" as="geometry">
            <mxRectangle width="248" height="30" as="alternateBounds" />
          </mxGeometry>
        </mxCell>
        <mxCell id="5nSqA9O4YfpTEkWZaX1V-435" value="&lt;span data-lucid-content=&quot;{&amp;quot;t&amp;quot;:&amp;quot;Users(user_id)&amp;quot;,&amp;quot;m&amp;quot;:[{&amp;quot;s&amp;quot;:0,&amp;quot;n&amp;quot;:&amp;quot;a&amp;quot;,&amp;quot;v&amp;quot;:&amp;quot;center&amp;quot;},{&amp;quot;s&amp;quot;:0,&amp;quot;n&amp;quot;:&amp;quot;p&amp;quot;,&amp;quot;v&amp;quot;:1.2},{&amp;quot;s&amp;quot;:0,&amp;quot;n&amp;quot;:&amp;quot;fc&amp;quot;,&amp;quot;v&amp;quot;:&amp;quot;Regular&amp;quot;,&amp;quot;e&amp;quot;:14},{&amp;quot;s&amp;quot;:0,&amp;quot;n&amp;quot;:&amp;quot;fid&amp;quot;,&amp;quot;v&amp;quot;:947029,&amp;quot;e&amp;quot;:14},{&amp;quot;s&amp;quot;:0,&amp;quot;n&amp;quot;:&amp;quot;fsp&amp;quot;,&amp;quot;v&amp;quot;:&amp;quot;ss_presetShapeStyle1_textStyle&amp;quot;,&amp;quot;e&amp;quot;:14},{&amp;quot;s&amp;quot;:0,&amp;quot;n&amp;quot;:&amp;quot;s&amp;quot;,&amp;quot;v&amp;quot;:17.77777777777778,&amp;quot;e&amp;quot;:14}]}&quot; data-lucid-type=&quot;application/vnd.lucid.text&quot;&gt;&lt;span&gt;Users(user_id)&lt;/span&gt;&lt;/span&gt;" style="rounded=0;whiteSpace=wrap;html=1;fontSize=12;" vertex="1" parent="1">
          <mxGeometry x="479" y="530" width="90" height="30" as="geometry" />
        </mxCell>
        <mxCell id="5nSqA9O4YfpTEkWZaX1V-436" value="&lt;span data-lucid-content=&quot;{&amp;quot;t&amp;quot;:&amp;quot;Courses(course_id)&amp;quot;,&amp;quot;m&amp;quot;:[{&amp;quot;s&amp;quot;:0,&amp;quot;n&amp;quot;:&amp;quot;a&amp;quot;,&amp;quot;v&amp;quot;:&amp;quot;center&amp;quot;},{&amp;quot;s&amp;quot;:0,&amp;quot;n&amp;quot;:&amp;quot;od&amp;quot;,&amp;quot;v&amp;quot;:1},{&amp;quot;s&amp;quot;:0,&amp;quot;n&amp;quot;:&amp;quot;p&amp;quot;,&amp;quot;v&amp;quot;:0.9583333333333333},{&amp;quot;s&amp;quot;:0,&amp;quot;n&amp;quot;:&amp;quot;fc&amp;quot;,&amp;quot;v&amp;quot;:&amp;quot;Regular&amp;quot;,&amp;quot;e&amp;quot;:18},{&amp;quot;s&amp;quot;:0,&amp;quot;n&amp;quot;:&amp;quot;fid&amp;quot;,&amp;quot;v&amp;quot;:947029,&amp;quot;e&amp;quot;:18},{&amp;quot;s&amp;quot;:0,&amp;quot;n&amp;quot;:&amp;quot;s&amp;quot;,&amp;quot;v&amp;quot;:17.77777777777778,&amp;quot;e&amp;quot;:18}]}&quot; data-lucid-type=&quot;application/vnd.lucid.text&quot;&gt;&lt;span&gt;Courses(course_id)&lt;/span&gt;&lt;/span&gt;" style="rounded=0;whiteSpace=wrap;html=1;fontSize=12;" vertex="1" parent="1">
          <mxGeometry x="459" y="560" width="110" height="30" as="geometry" />
        </mxCell>
        <mxCell id="5nSqA9O4YfpTEkWZaX1V-437" value="SubmissionQuestions" style="shape=table;startSize=40;container=1;collapsible=1;childLayout=tableLayout;fixedRows=1;rowLines=1;fontStyle=1;align=center;resizeLast=0;swimlaneLine=1;fixDash=0;shadow=0;fontSize=11;movable=0;resizable=0;rotatable=0;deletable=0;editable=0;locked=1;connectable=0;" vertex="1" parent="1">
          <mxGeometry x="569" y="690" width="281" height="130" as="geometry" />
        </mxCell>
        <mxCell id="5nSqA9O4YfpTEkWZaX1V-438" value="" style="shape=partialRectangle;collapsible=0;dropTarget=0;pointerEvents=0;fillColor=none;points=[[0,0.5],[1,0.5]];portConstraint=eastwest;top=0;left=0;right=0;bottom=1;fixDash=0;resizeLast=0;shadow=0;fontSize=12;" vertex="1" parent="5nSqA9O4YfpTEkWZaX1V-437">
          <mxGeometry y="40" width="281" height="30" as="geometry" />
        </mxCell>
        <mxCell id="5nSqA9O4YfpTEkWZaX1V-439" value="PK" style="shape=partialRectangle;overflow=hidden;connectable=0;fillColor=none;top=0;left=0;bottom=0;right=0;fontStyle=1;fixDash=0;resizeLast=0;shadow=0;fontSize=12;" vertex="1" parent="5nSqA9O4YfpTEkWZaX1V-438">
          <mxGeometry width="33" height="30" as="geometry">
            <mxRectangle width="33" height="30" as="alternateBounds" />
          </mxGeometry>
        </mxCell>
        <mxCell id="5nSqA9O4YfpTEkWZaX1V-440" value="submission_question_id INT" style="shape=partialRectangle;overflow=hidden;connectable=0;fillColor=none;top=0;left=0;bottom=0;right=0;align=left;spacingLeft=6;fontStyle=1;fixDash=0;resizeLast=0;shadow=0;fontSize=12;" vertex="1" parent="5nSqA9O4YfpTEkWZaX1V-438">
          <mxGeometry x="33" width="248" height="30" as="geometry">
            <mxRectangle width="248" height="30" as="alternateBounds" />
          </mxGeometry>
        </mxCell>
        <mxCell id="5nSqA9O4YfpTEkWZaX1V-441" value="" style="shape=partialRectangle;collapsible=0;dropTarget=0;pointerEvents=0;fillColor=none;points=[[0,0.5],[1,0.5]];portConstraint=eastwest;top=0;left=0;right=0;bottom=0;fixDash=0;resizeLast=0;shadow=0;fontSize=12;" vertex="1" parent="5nSqA9O4YfpTEkWZaX1V-437">
          <mxGeometry y="70" width="281" height="30" as="geometry" />
        </mxCell>
        <mxCell id="5nSqA9O4YfpTEkWZaX1V-442" value="FK" style="shape=partialRectangle;overflow=hidden;connectable=0;fillColor=none;top=0;left=0;bottom=0;right=0;fixDash=0;resizeLast=0;shadow=0;fontSize=12;" vertex="1" parent="5nSqA9O4YfpTEkWZaX1V-441">
          <mxGeometry width="33" height="30" as="geometry">
            <mxRectangle width="33" height="30" as="alternateBounds" />
          </mxGeometry>
        </mxCell>
        <mxCell id="5nSqA9O4YfpTEkWZaX1V-443" value="submission_id INT" style="shape=partialRectangle;overflow=hidden;connectable=0;fillColor=none;top=0;left=0;bottom=0;right=0;align=left;spacingLeft=6;fixDash=0;resizeLast=0;shadow=0;fontSize=12;" vertex="1" parent="5nSqA9O4YfpTEkWZaX1V-441">
          <mxGeometry x="33" width="248" height="30" as="geometry">
            <mxRectangle width="248" height="30" as="alternateBounds" />
          </mxGeometry>
        </mxCell>
        <mxCell id="5nSqA9O4YfpTEkWZaX1V-444" value="" style="shape=partialRectangle;collapsible=0;dropTarget=0;pointerEvents=0;fillColor=none;points=[[0,0.5],[1,0.5]];portConstraint=eastwest;top=0;left=0;right=0;bottom=0;fixDash=0;resizeLast=0;shadow=0;fontSize=12;" vertex="1" parent="5nSqA9O4YfpTEkWZaX1V-437">
          <mxGeometry y="100" width="281" height="30" as="geometry" />
        </mxCell>
        <mxCell id="5nSqA9O4YfpTEkWZaX1V-445" value="FK" style="shape=partialRectangle;overflow=hidden;connectable=0;fillColor=none;top=0;left=0;bottom=0;right=0;fixDash=0;resizeLast=0;shadow=0;fontSize=12;" vertex="1" parent="5nSqA9O4YfpTEkWZaX1V-444">
          <mxGeometry width="33" height="30" as="geometry">
            <mxRectangle width="33" height="30" as="alternateBounds" />
          </mxGeometry>
        </mxCell>
        <mxCell id="5nSqA9O4YfpTEkWZaX1V-446" value="course_id INT" style="shape=partialRectangle;overflow=hidden;connectable=0;fillColor=none;top=0;left=0;bottom=0;right=0;align=left;spacingLeft=6;fixDash=0;resizeLast=0;shadow=0;fontSize=12;" vertex="1" parent="5nSqA9O4YfpTEkWZaX1V-444">
          <mxGeometry x="33" width="248" height="30" as="geometry">
            <mxRectangle width="248" height="30" as="alternateBounds" />
          </mxGeometry>
        </mxCell>
        <mxCell id="5nSqA9O4YfpTEkWZaX1V-447" value="&lt;span data-lucid-type=&quot;application/vnd.lucid.text&quot; data-lucid-content=&quot;{&amp;quot;t&amp;quot;:&amp;quot;ExamSubmissions(submission_id)&amp;quot;,&amp;quot;m&amp;quot;:[{&amp;quot;s&amp;quot;:0,&amp;quot;n&amp;quot;:&amp;quot;a&amp;quot;,&amp;quot;v&amp;quot;:&amp;quot;center&amp;quot;},{&amp;quot;s&amp;quot;:0,&amp;quot;n&amp;quot;:&amp;quot;p&amp;quot;,&amp;quot;v&amp;quot;:0.9583333333333333},{&amp;quot;s&amp;quot;:0,&amp;quot;n&amp;quot;:&amp;quot;fc&amp;quot;,&amp;quot;v&amp;quot;:&amp;quot;Regular&amp;quot;,&amp;quot;e&amp;quot;:30},{&amp;quot;s&amp;quot;:0,&amp;quot;n&amp;quot;:&amp;quot;fid&amp;quot;,&amp;quot;v&amp;quot;:947029,&amp;quot;e&amp;quot;:30},{&amp;quot;s&amp;quot;:0,&amp;quot;n&amp;quot;:&amp;quot;s&amp;quot;,&amp;quot;v&amp;quot;:17.77777777777778,&amp;quot;e&amp;quot;:30}]}&quot;&gt;&lt;span&gt;ExamSubmissions(submission_id)&lt;/span&gt;&lt;/span&gt;" style="rounded=0;whiteSpace=wrap;html=1;fontSize=12;" vertex="1" parent="1">
          <mxGeometry x="380" y="760" width="189" height="30" as="geometry" />
        </mxCell>
        <mxCell id="5nSqA9O4YfpTEkWZaX1V-448" value="&lt;span data-lucid-type=&quot;application/vnd.lucid.text&quot; data-lucid-content=&quot;{&amp;quot;t&amp;quot;:&amp;quot;Questions(question_id)&amp;quot;,&amp;quot;m&amp;quot;:[{&amp;quot;s&amp;quot;:0,&amp;quot;n&amp;quot;:&amp;quot;a&amp;quot;,&amp;quot;v&amp;quot;:&amp;quot;center&amp;quot;},{&amp;quot;s&amp;quot;:0,&amp;quot;n&amp;quot;:&amp;quot;od&amp;quot;,&amp;quot;v&amp;quot;:1},{&amp;quot;s&amp;quot;:0,&amp;quot;n&amp;quot;:&amp;quot;p&amp;quot;,&amp;quot;v&amp;quot;:0.9583333333333333},{&amp;quot;s&amp;quot;:0,&amp;quot;n&amp;quot;:&amp;quot;fc&amp;quot;,&amp;quot;v&amp;quot;:&amp;quot;Regular&amp;quot;,&amp;quot;e&amp;quot;:22},{&amp;quot;s&amp;quot;:0,&amp;quot;n&amp;quot;:&amp;quot;fid&amp;quot;,&amp;quot;v&amp;quot;:947029,&amp;quot;e&amp;quot;:22},{&amp;quot;s&amp;quot;:0,&amp;quot;n&amp;quot;:&amp;quot;s&amp;quot;,&amp;quot;v&amp;quot;:17.77777777777778,&amp;quot;e&amp;quot;:22}]}&quot;&gt;&lt;span&gt;Questions(question_id)&lt;/span&gt;&lt;/span&gt;" style="rounded=0;whiteSpace=wrap;html=1;fontSize=12;" vertex="1" parent="1">
          <mxGeometry x="420" y="790" width="149" height="30" as="geometry" />
        </mxCell>
        <mxCell id="5nSqA9O4YfpTEkWZaX1V-449" value="Tasks" style="shape=table;startSize=40;container=1;collapsible=1;childLayout=tableLayout;fixedRows=1;rowLines=1;fontStyle=1;align=center;resizeLast=0;swimlaneLine=1;fixDash=0;shadow=0;fontSize=12;movable=0;resizable=0;rotatable=0;deletable=0;editable=0;locked=1;connectable=0;" vertex="1" parent="1">
          <mxGeometry x="569" y="860" width="281" height="310" as="geometry" />
        </mxCell>
        <mxCell id="5nSqA9O4YfpTEkWZaX1V-450" value="" style="shape=partialRectangle;collapsible=0;dropTarget=0;pointerEvents=0;fillColor=none;points=[[0,0.5],[1,0.5]];portConstraint=eastwest;top=0;left=0;right=0;bottom=1;fixDash=0;resizeLast=0;shadow=0;fontSize=12;" vertex="1" parent="5nSqA9O4YfpTEkWZaX1V-449">
          <mxGeometry y="40" width="281" height="30" as="geometry" />
        </mxCell>
        <mxCell id="5nSqA9O4YfpTEkWZaX1V-451" value="PK" style="shape=partialRectangle;overflow=hidden;connectable=0;fillColor=none;top=0;left=0;bottom=0;right=0;fontStyle=1;fixDash=0;resizeLast=0;shadow=0;fontSize=12;" vertex="1" parent="5nSqA9O4YfpTEkWZaX1V-450">
          <mxGeometry width="33" height="30" as="geometry">
            <mxRectangle width="33" height="30" as="alternateBounds" />
          </mxGeometry>
        </mxCell>
        <mxCell id="5nSqA9O4YfpTEkWZaX1V-452" value="task_id INT AUTO_INCREMENT" style="shape=partialRectangle;overflow=hidden;connectable=0;fillColor=none;top=0;left=0;bottom=0;right=0;align=left;spacingLeft=6;fontStyle=1;fixDash=0;resizeLast=0;shadow=0;fontSize=12;" vertex="1" parent="5nSqA9O4YfpTEkWZaX1V-450">
          <mxGeometry x="33" width="248" height="30" as="geometry">
            <mxRectangle width="248" height="30" as="alternateBounds" />
          </mxGeometry>
        </mxCell>
        <mxCell id="5nSqA9O4YfpTEkWZaX1V-453" value="" style="shape=partialRectangle;collapsible=0;dropTarget=0;pointerEvents=0;fillColor=none;points=[[0,0.5],[1,0.5]];portConstraint=eastwest;top=0;left=0;right=0;bottom=0;fixDash=0;resizeLast=0;shadow=0;fontSize=12;" vertex="1" parent="5nSqA9O4YfpTEkWZaX1V-449">
          <mxGeometry y="70" width="281" height="30" as="geometry" />
        </mxCell>
        <mxCell id="5nSqA9O4YfpTEkWZaX1V-454" value="" style="shape=partialRectangle;overflow=hidden;connectable=0;fillColor=none;top=0;left=0;bottom=0;right=0;fixDash=0;resizeLast=0;shadow=0;fontSize=12;" vertex="1" parent="5nSqA9O4YfpTEkWZaX1V-453">
          <mxGeometry width="33" height="30" as="geometry">
            <mxRectangle width="33" height="30" as="alternateBounds" />
          </mxGeometry>
        </mxCell>
        <mxCell id="5nSqA9O4YfpTEkWZaX1V-455" value="title VARCHAR(255)" style="shape=partialRectangle;overflow=hidden;connectable=0;fillColor=none;top=0;left=0;bottom=0;right=0;align=left;spacingLeft=6;fixDash=0;resizeLast=0;shadow=0;fontSize=12;" vertex="1" parent="5nSqA9O4YfpTEkWZaX1V-453">
          <mxGeometry x="33" width="248" height="30" as="geometry">
            <mxRectangle width="248" height="30" as="alternateBounds" />
          </mxGeometry>
        </mxCell>
        <mxCell id="5nSqA9O4YfpTEkWZaX1V-456" value="" style="shape=partialRectangle;collapsible=0;dropTarget=0;pointerEvents=0;fillColor=none;points=[[0,0.5],[1,0.5]];portConstraint=eastwest;top=0;left=0;right=0;bottom=0;fixDash=0;resizeLast=0;shadow=0;fontSize=12;" vertex="1" parent="5nSqA9O4YfpTEkWZaX1V-449">
          <mxGeometry y="100" width="281" height="30" as="geometry" />
        </mxCell>
        <mxCell id="5nSqA9O4YfpTEkWZaX1V-457" value="" style="shape=partialRectangle;overflow=hidden;connectable=0;fillColor=none;top=0;left=0;bottom=0;right=0;fixDash=0;resizeLast=0;shadow=0;fontSize=12;" vertex="1" parent="5nSqA9O4YfpTEkWZaX1V-456">
          <mxGeometry width="33" height="30" as="geometry">
            <mxRectangle width="33" height="30" as="alternateBounds" />
          </mxGeometry>
        </mxCell>
        <mxCell id="5nSqA9O4YfpTEkWZaX1V-458" value="description TEXT" style="shape=partialRectangle;overflow=hidden;connectable=0;fillColor=none;top=0;left=0;bottom=0;right=0;align=left;spacingLeft=6;fixDash=0;resizeLast=0;shadow=0;fontSize=12;" vertex="1" parent="5nSqA9O4YfpTEkWZaX1V-456">
          <mxGeometry x="33" width="248" height="30" as="geometry">
            <mxRectangle width="248" height="30" as="alternateBounds" />
          </mxGeometry>
        </mxCell>
        <mxCell id="5nSqA9O4YfpTEkWZaX1V-459" value="" style="shape=partialRectangle;collapsible=0;dropTarget=0;pointerEvents=0;fillColor=none;points=[[0,0.5],[1,0.5]];portConstraint=eastwest;top=0;left=0;right=0;bottom=0;fixDash=0;resizeLast=0;shadow=0;fontSize=12;" vertex="1" parent="5nSqA9O4YfpTEkWZaX1V-449">
          <mxGeometry y="130" width="281" height="30" as="geometry" />
        </mxCell>
        <mxCell id="5nSqA9O4YfpTEkWZaX1V-460" value="FK" style="shape=partialRectangle;overflow=hidden;connectable=0;fillColor=none;top=0;left=0;bottom=0;right=0;fixDash=0;resizeLast=0;shadow=0;fontSize=12;" vertex="1" parent="5nSqA9O4YfpTEkWZaX1V-459">
          <mxGeometry width="33" height="30" as="geometry">
            <mxRectangle width="33" height="30" as="alternateBounds" />
          </mxGeometry>
        </mxCell>
        <mxCell id="5nSqA9O4YfpTEkWZaX1V-461" value="assigned_to INT" style="shape=partialRectangle;overflow=hidden;connectable=0;fillColor=none;top=0;left=0;bottom=0;right=0;align=left;spacingLeft=6;fixDash=0;resizeLast=0;shadow=0;fontSize=12;" vertex="1" parent="5nSqA9O4YfpTEkWZaX1V-459">
          <mxGeometry x="33" width="248" height="30" as="geometry">
            <mxRectangle width="248" height="30" as="alternateBounds" />
          </mxGeometry>
        </mxCell>
        <mxCell id="5nSqA9O4YfpTEkWZaX1V-462" value="" style="shape=partialRectangle;collapsible=0;dropTarget=0;pointerEvents=0;fillColor=none;points=[[0,0.5],[1,0.5]];portConstraint=eastwest;top=0;left=0;right=0;bottom=0;fixDash=0;resizeLast=0;shadow=0;fontSize=12;" vertex="1" parent="5nSqA9O4YfpTEkWZaX1V-449">
          <mxGeometry y="160" width="281" height="30" as="geometry" />
        </mxCell>
        <mxCell id="5nSqA9O4YfpTEkWZaX1V-463" value="FK" style="shape=partialRectangle;overflow=hidden;connectable=0;fillColor=none;top=0;left=0;bottom=0;right=0;fixDash=0;resizeLast=0;shadow=0;fontSize=12;" vertex="1" parent="5nSqA9O4YfpTEkWZaX1V-462">
          <mxGeometry width="33" height="30" as="geometry">
            <mxRectangle width="33" height="30" as="alternateBounds" />
          </mxGeometry>
        </mxCell>
        <mxCell id="5nSqA9O4YfpTEkWZaX1V-464" value="assigned_by INT" style="shape=partialRectangle;overflow=hidden;connectable=0;fillColor=none;top=0;left=0;bottom=0;right=0;align=left;spacingLeft=6;fixDash=0;resizeLast=0;shadow=0;fontSize=12;" vertex="1" parent="5nSqA9O4YfpTEkWZaX1V-462">
          <mxGeometry x="33" width="248" height="30" as="geometry">
            <mxRectangle width="248" height="30" as="alternateBounds" />
          </mxGeometry>
        </mxCell>
        <mxCell id="5nSqA9O4YfpTEkWZaX1V-465" value="" style="shape=partialRectangle;collapsible=0;dropTarget=0;pointerEvents=0;fillColor=none;points=[[0,0.5],[1,0.5]];portConstraint=eastwest;top=0;left=0;right=0;bottom=0;fixDash=0;resizeLast=0;shadow=0;fontSize=12;" vertex="1" parent="5nSqA9O4YfpTEkWZaX1V-449">
          <mxGeometry y="190" width="281" height="30" as="geometry" />
        </mxCell>
        <mxCell id="5nSqA9O4YfpTEkWZaX1V-466" value="FK" style="shape=partialRectangle;overflow=hidden;connectable=0;fillColor=none;top=0;left=0;bottom=0;right=0;fixDash=0;resizeLast=0;shadow=0;fontSize=12;" vertex="1" parent="5nSqA9O4YfpTEkWZaX1V-465">
          <mxGeometry width="33" height="30" as="geometry">
            <mxRectangle width="33" height="30" as="alternateBounds" />
          </mxGeometry>
        </mxCell>
        <mxCell id="5nSqA9O4YfpTEkWZaX1V-467" value="related_submission_id INT NULL" style="shape=partialRectangle;overflow=hidden;connectable=0;fillColor=none;top=0;left=0;bottom=0;right=0;align=left;spacingLeft=6;fixDash=0;resizeLast=0;shadow=0;fontSize=12;" vertex="1" parent="5nSqA9O4YfpTEkWZaX1V-465">
          <mxGeometry x="33" width="248" height="30" as="geometry">
            <mxRectangle width="248" height="30" as="alternateBounds" />
          </mxGeometry>
        </mxCell>
        <mxCell id="5nSqA9O4YfpTEkWZaX1V-468" value="" style="shape=partialRectangle;collapsible=0;dropTarget=0;pointerEvents=0;fillColor=none;points=[[0,0.5],[1,0.5]];portConstraint=eastwest;top=0;left=0;right=0;bottom=0;fixDash=0;resizeLast=0;shadow=0;fontSize=12;" vertex="1" parent="5nSqA9O4YfpTEkWZaX1V-449">
          <mxGeometry y="220" width="281" height="30" as="geometry" />
        </mxCell>
        <mxCell id="5nSqA9O4YfpTEkWZaX1V-469" value="" style="shape=partialRectangle;overflow=hidden;connectable=0;fillColor=none;top=0;left=0;bottom=0;right=0;fixDash=0;resizeLast=0;shadow=0;fontSize=12;" vertex="1" parent="5nSqA9O4YfpTEkWZaX1V-468">
          <mxGeometry width="33" height="30" as="geometry">
            <mxRectangle width="33" height="30" as="alternateBounds" />
          </mxGeometry>
        </mxCell>
        <mxCell id="5nSqA9O4YfpTEkWZaX1V-470" value="status ENUM(&#39;pending&#39;, &#39;in_progress&#39;, &#39;done&#39;)" style="shape=partialRectangle;overflow=hidden;connectable=0;fillColor=none;top=0;left=0;bottom=0;right=0;align=left;spacingLeft=6;fixDash=0;resizeLast=0;shadow=0;fontSize=12;" vertex="1" parent="5nSqA9O4YfpTEkWZaX1V-468">
          <mxGeometry x="33" width="248" height="30" as="geometry">
            <mxRectangle width="248" height="30" as="alternateBounds" />
          </mxGeometry>
        </mxCell>
        <mxCell id="5nSqA9O4YfpTEkWZaX1V-471" value="" style="shape=partialRectangle;collapsible=0;dropTarget=0;pointerEvents=0;fillColor=none;points=[[0,0.5],[1,0.5]];portConstraint=eastwest;top=0;left=0;right=0;bottom=0;fixDash=0;resizeLast=0;shadow=0;fontSize=12;" vertex="1" parent="5nSqA9O4YfpTEkWZaX1V-449">
          <mxGeometry y="250" width="281" height="30" as="geometry" />
        </mxCell>
        <mxCell id="5nSqA9O4YfpTEkWZaX1V-472" value="" style="shape=partialRectangle;overflow=hidden;connectable=0;fillColor=none;top=0;left=0;bottom=0;right=0;fixDash=0;resizeLast=0;shadow=0;fontSize=12;" vertex="1" parent="5nSqA9O4YfpTEkWZaX1V-471">
          <mxGeometry width="33" height="30" as="geometry">
            <mxRectangle width="33" height="30" as="alternateBounds" />
          </mxGeometry>
        </mxCell>
        <mxCell id="5nSqA9O4YfpTEkWZaX1V-473" value="assigned_at DATETIME" style="shape=partialRectangle;overflow=hidden;connectable=0;fillColor=none;top=0;left=0;bottom=0;right=0;align=left;spacingLeft=6;fixDash=0;resizeLast=0;shadow=0;fontSize=12;" vertex="1" parent="5nSqA9O4YfpTEkWZaX1V-471">
          <mxGeometry x="33" width="248" height="30" as="geometry">
            <mxRectangle width="248" height="30" as="alternateBounds" />
          </mxGeometry>
        </mxCell>
        <mxCell id="5nSqA9O4YfpTEkWZaX1V-474" value="" style="shape=partialRectangle;collapsible=0;dropTarget=0;pointerEvents=0;fillColor=none;points=[[0,0.5],[1,0.5]];portConstraint=eastwest;top=0;left=0;right=0;bottom=0;fixDash=0;resizeLast=0;shadow=0;fontSize=12;" vertex="1" parent="5nSqA9O4YfpTEkWZaX1V-449">
          <mxGeometry y="280" width="281" height="30" as="geometry" />
        </mxCell>
        <mxCell id="5nSqA9O4YfpTEkWZaX1V-475" value="" style="shape=partialRectangle;overflow=hidden;connectable=0;fillColor=none;top=0;left=0;bottom=0;right=0;fixDash=0;resizeLast=0;shadow=0;fontSize=12;" vertex="1" parent="5nSqA9O4YfpTEkWZaX1V-474">
          <mxGeometry width="33" height="30" as="geometry">
            <mxRectangle width="33" height="30" as="alternateBounds" />
          </mxGeometry>
        </mxCell>
        <mxCell id="5nSqA9O4YfpTEkWZaX1V-476" value="completed_at DATETIME NULL" style="shape=partialRectangle;overflow=hidden;connectable=0;fillColor=none;top=0;left=0;bottom=0;right=0;align=left;spacingLeft=6;fixDash=0;resizeLast=0;shadow=0;fontSize=12;" vertex="1" parent="5nSqA9O4YfpTEkWZaX1V-474">
          <mxGeometry x="33" width="248" height="30" as="geometry">
            <mxRectangle width="248" height="30" as="alternateBounds" />
          </mxGeometry>
        </mxCell>
        <mxCell id="5nSqA9O4YfpTEkWZaX1V-480" value="&lt;span data-lucid-content=&quot;{&amp;quot;t&amp;quot;:&amp;quot;Users(user_id)&amp;quot;,&amp;quot;m&amp;quot;:[{&amp;quot;s&amp;quot;:0,&amp;quot;n&amp;quot;:&amp;quot;a&amp;quot;,&amp;quot;v&amp;quot;:&amp;quot;center&amp;quot;},{&amp;quot;s&amp;quot;:0,&amp;quot;n&amp;quot;:&amp;quot;p&amp;quot;,&amp;quot;v&amp;quot;:1.2},{&amp;quot;s&amp;quot;:0,&amp;quot;n&amp;quot;:&amp;quot;fc&amp;quot;,&amp;quot;v&amp;quot;:&amp;quot;Regular&amp;quot;,&amp;quot;e&amp;quot;:14},{&amp;quot;s&amp;quot;:0,&amp;quot;n&amp;quot;:&amp;quot;fid&amp;quot;,&amp;quot;v&amp;quot;:947029,&amp;quot;e&amp;quot;:14},{&amp;quot;s&amp;quot;:0,&amp;quot;n&amp;quot;:&amp;quot;fsp&amp;quot;,&amp;quot;v&amp;quot;:&amp;quot;ss_presetShapeStyle1_textStyle&amp;quot;,&amp;quot;e&amp;quot;:14},{&amp;quot;s&amp;quot;:0,&amp;quot;n&amp;quot;:&amp;quot;s&amp;quot;,&amp;quot;v&amp;quot;:17.77777777777778,&amp;quot;e&amp;quot;:14}]}&quot; data-lucid-type=&quot;application/vnd.lucid.text&quot;&gt;&lt;span&gt;Users(user_id)&lt;/span&gt;&lt;/span&gt;" style="rounded=0;whiteSpace=wrap;html=1;fontSize=12;" vertex="1" parent="1">
          <mxGeometry x="479" y="990" width="90" height="30" as="geometry" />
        </mxCell>
        <mxCell id="5nSqA9O4YfpTEkWZaX1V-481" value="&lt;span data-lucid-content=&quot;{&amp;quot;t&amp;quot;:&amp;quot;Users(user_id)&amp;quot;,&amp;quot;m&amp;quot;:[{&amp;quot;s&amp;quot;:0,&amp;quot;n&amp;quot;:&amp;quot;a&amp;quot;,&amp;quot;v&amp;quot;:&amp;quot;center&amp;quot;},{&amp;quot;s&amp;quot;:0,&amp;quot;n&amp;quot;:&amp;quot;p&amp;quot;,&amp;quot;v&amp;quot;:1.2},{&amp;quot;s&amp;quot;:0,&amp;quot;n&amp;quot;:&amp;quot;fc&amp;quot;,&amp;quot;v&amp;quot;:&amp;quot;Regular&amp;quot;,&amp;quot;e&amp;quot;:14},{&amp;quot;s&amp;quot;:0,&amp;quot;n&amp;quot;:&amp;quot;fid&amp;quot;,&amp;quot;v&amp;quot;:947029,&amp;quot;e&amp;quot;:14},{&amp;quot;s&amp;quot;:0,&amp;quot;n&amp;quot;:&amp;quot;fsp&amp;quot;,&amp;quot;v&amp;quot;:&amp;quot;ss_presetShapeStyle1_textStyle&amp;quot;,&amp;quot;e&amp;quot;:14},{&amp;quot;s&amp;quot;:0,&amp;quot;n&amp;quot;:&amp;quot;s&amp;quot;,&amp;quot;v&amp;quot;:17.77777777777778,&amp;quot;e&amp;quot;:14}]}&quot; data-lucid-type=&quot;application/vnd.lucid.text&quot;&gt;&lt;span&gt;Users(user_id)&lt;/span&gt;&lt;/span&gt;" style="rounded=0;whiteSpace=wrap;html=1;fontSize=12;" vertex="1" parent="1">
          <mxGeometry x="479" y="1020" width="90" height="30" as="geometry" />
        </mxCell>
        <mxCell id="5nSqA9O4YfpTEkWZaX1V-482" value="&lt;span data-lucid-type=&quot;application/vnd.lucid.text&quot; data-lucid-content=&quot;{&amp;quot;t&amp;quot;:&amp;quot;ExamSubmissions(submission_id)&amp;quot;,&amp;quot;m&amp;quot;:[{&amp;quot;s&amp;quot;:0,&amp;quot;n&amp;quot;:&amp;quot;a&amp;quot;,&amp;quot;v&amp;quot;:&amp;quot;center&amp;quot;},{&amp;quot;s&amp;quot;:0,&amp;quot;n&amp;quot;:&amp;quot;p&amp;quot;,&amp;quot;v&amp;quot;:0.9583333333333333},{&amp;quot;s&amp;quot;:0,&amp;quot;n&amp;quot;:&amp;quot;fc&amp;quot;,&amp;quot;v&amp;quot;:&amp;quot;Regular&amp;quot;,&amp;quot;e&amp;quot;:30},{&amp;quot;s&amp;quot;:0,&amp;quot;n&amp;quot;:&amp;quot;fid&amp;quot;,&amp;quot;v&amp;quot;:947029,&amp;quot;e&amp;quot;:30},{&amp;quot;s&amp;quot;:0,&amp;quot;n&amp;quot;:&amp;quot;s&amp;quot;,&amp;quot;v&amp;quot;:17.77777777777778,&amp;quot;e&amp;quot;:30}]}&quot;&gt;&lt;span&gt;ExamSubmissions(submission_id)&lt;/span&gt;&lt;/span&gt;" style="rounded=0;whiteSpace=wrap;html=1;fontSize=12;" vertex="1" parent="1">
          <mxGeometry x="380" y="1050" width="189" height="30" as="geometry" />
        </mxCell>
        <mxCell id="5nSqA9O4YfpTEkWZaX1V-483" value="Comments" style="shape=table;startSize=40;container=1;collapsible=1;childLayout=tableLayout;fixedRows=1;rowLines=1;fontStyle=1;align=center;resizeLast=0;swimlaneLine=1;fixDash=0;shadow=0;fontSize=12;movable=0;resizable=0;rotatable=0;deletable=0;editable=0;locked=1;connectable=0;" vertex="1" parent="1">
          <mxGeometry x="569" y="1200" width="281" height="190" as="geometry" />
        </mxCell>
        <mxCell id="5nSqA9O4YfpTEkWZaX1V-484" value="" style="shape=partialRectangle;collapsible=0;dropTarget=0;pointerEvents=0;fillColor=none;points=[[0,0.5],[1,0.5]];portConstraint=eastwest;top=0;left=0;right=0;bottom=1;fixDash=0;resizeLast=0;shadow=0;fontSize=12;" vertex="1" parent="5nSqA9O4YfpTEkWZaX1V-483">
          <mxGeometry y="40" width="281" height="30" as="geometry" />
        </mxCell>
        <mxCell id="5nSqA9O4YfpTEkWZaX1V-485" value="PK" style="shape=partialRectangle;overflow=hidden;connectable=0;fillColor=none;top=0;left=0;bottom=0;right=0;fontStyle=1;fixDash=0;resizeLast=0;shadow=0;fontSize=12;" vertex="1" parent="5nSqA9O4YfpTEkWZaX1V-484">
          <mxGeometry width="33" height="30" as="geometry">
            <mxRectangle width="33" height="30" as="alternateBounds" />
          </mxGeometry>
        </mxCell>
        <mxCell id="5nSqA9O4YfpTEkWZaX1V-486" value="comment_id INT AUTO_INCREMENT" style="shape=partialRectangle;overflow=hidden;connectable=0;fillColor=none;top=0;left=0;bottom=0;right=0;align=left;spacingLeft=6;fontStyle=1;fixDash=0;resizeLast=0;shadow=0;fontSize=12;" vertex="1" parent="5nSqA9O4YfpTEkWZaX1V-484">
          <mxGeometry x="33" width="248" height="30" as="geometry">
            <mxRectangle width="248" height="30" as="alternateBounds" />
          </mxGeometry>
        </mxCell>
        <mxCell id="5nSqA9O4YfpTEkWZaX1V-487" value="" style="shape=partialRectangle;collapsible=0;dropTarget=0;pointerEvents=0;fillColor=none;points=[[0,0.5],[1,0.5]];portConstraint=eastwest;top=0;left=0;right=0;bottom=0;fixDash=0;resizeLast=0;shadow=0;fontSize=12;" vertex="1" parent="5nSqA9O4YfpTEkWZaX1V-483">
          <mxGeometry y="70" width="281" height="30" as="geometry" />
        </mxCell>
        <mxCell id="5nSqA9O4YfpTEkWZaX1V-488" value="FK" style="shape=partialRectangle;overflow=hidden;connectable=0;fillColor=none;top=0;left=0;bottom=0;right=0;fixDash=0;resizeLast=0;shadow=0;fontSize=12;" vertex="1" parent="5nSqA9O4YfpTEkWZaX1V-487">
          <mxGeometry width="33" height="30" as="geometry">
            <mxRectangle width="33" height="30" as="alternateBounds" />
          </mxGeometry>
        </mxCell>
        <mxCell id="5nSqA9O4YfpTEkWZaX1V-489" value="task_id INT" style="shape=partialRectangle;overflow=hidden;connectable=0;fillColor=none;top=0;left=0;bottom=0;right=0;align=left;spacingLeft=6;fixDash=0;resizeLast=0;shadow=0;fontSize=12;" vertex="1" parent="5nSqA9O4YfpTEkWZaX1V-487">
          <mxGeometry x="33" width="248" height="30" as="geometry">
            <mxRectangle width="248" height="30" as="alternateBounds" />
          </mxGeometry>
        </mxCell>
        <mxCell id="5nSqA9O4YfpTEkWZaX1V-490" value="" style="shape=partialRectangle;collapsible=0;dropTarget=0;pointerEvents=0;fillColor=none;points=[[0,0.5],[1,0.5]];portConstraint=eastwest;top=0;left=0;right=0;bottom=0;fixDash=0;resizeLast=0;shadow=0;fontSize=12;" vertex="1" parent="5nSqA9O4YfpTEkWZaX1V-483">
          <mxGeometry y="100" width="281" height="30" as="geometry" />
        </mxCell>
        <mxCell id="5nSqA9O4YfpTEkWZaX1V-491" value="FK" style="shape=partialRectangle;overflow=hidden;connectable=0;fillColor=none;top=0;left=0;bottom=0;right=0;fixDash=0;resizeLast=0;shadow=0;fontSize=12;" vertex="1" parent="5nSqA9O4YfpTEkWZaX1V-490">
          <mxGeometry width="33" height="30" as="geometry">
            <mxRectangle width="33" height="30" as="alternateBounds" />
          </mxGeometry>
        </mxCell>
        <mxCell id="5nSqA9O4YfpTEkWZaX1V-492" value="commented_by INT" style="shape=partialRectangle;overflow=hidden;connectable=0;fillColor=none;top=0;left=0;bottom=0;right=0;align=left;spacingLeft=6;fixDash=0;resizeLast=0;shadow=0;fontSize=12;fontStyle=0" vertex="1" parent="5nSqA9O4YfpTEkWZaX1V-490">
          <mxGeometry x="33" width="248" height="30" as="geometry">
            <mxRectangle width="248" height="30" as="alternateBounds" />
          </mxGeometry>
        </mxCell>
        <mxCell id="5nSqA9O4YfpTEkWZaX1V-493" value="" style="shape=partialRectangle;collapsible=0;dropTarget=0;pointerEvents=0;fillColor=none;points=[[0,0.5],[1,0.5]];portConstraint=eastwest;top=0;left=0;right=0;bottom=0;fixDash=0;resizeLast=0;shadow=0;fontSize=12;" vertex="1" parent="5nSqA9O4YfpTEkWZaX1V-483">
          <mxGeometry y="130" width="281" height="30" as="geometry" />
        </mxCell>
        <mxCell id="5nSqA9O4YfpTEkWZaX1V-494" value="" style="shape=partialRectangle;overflow=hidden;connectable=0;fillColor=none;top=0;left=0;bottom=0;right=0;fixDash=0;resizeLast=0;shadow=0;fontSize=12;" vertex="1" parent="5nSqA9O4YfpTEkWZaX1V-493">
          <mxGeometry width="33" height="30" as="geometry">
            <mxRectangle width="33" height="30" as="alternateBounds" />
          </mxGeometry>
        </mxCell>
        <mxCell id="5nSqA9O4YfpTEkWZaX1V-495" value="content TEXT" style="shape=partialRectangle;overflow=hidden;connectable=0;fillColor=none;top=0;left=0;bottom=0;right=0;align=left;spacingLeft=6;fixDash=0;resizeLast=0;shadow=0;fontSize=12;" vertex="1" parent="5nSqA9O4YfpTEkWZaX1V-493">
          <mxGeometry x="33" width="248" height="30" as="geometry">
            <mxRectangle width="248" height="30" as="alternateBounds" />
          </mxGeometry>
        </mxCell>
        <mxCell id="5nSqA9O4YfpTEkWZaX1V-496" value="" style="shape=partialRectangle;collapsible=0;dropTarget=0;pointerEvents=0;fillColor=none;points=[[0,0.5],[1,0.5]];portConstraint=eastwest;top=0;left=0;right=0;bottom=0;fixDash=0;resizeLast=0;shadow=0;fontSize=12;" vertex="1" parent="5nSqA9O4YfpTEkWZaX1V-483">
          <mxGeometry y="160" width="281" height="30" as="geometry" />
        </mxCell>
        <mxCell id="5nSqA9O4YfpTEkWZaX1V-497" value="" style="shape=partialRectangle;overflow=hidden;connectable=0;fillColor=none;top=0;left=0;bottom=0;right=0;fixDash=0;resizeLast=0;shadow=0;fontSize=12;" vertex="1" parent="5nSqA9O4YfpTEkWZaX1V-496">
          <mxGeometry width="33" height="30" as="geometry">
            <mxRectangle width="33" height="30" as="alternateBounds" />
          </mxGeometry>
        </mxCell>
        <mxCell id="5nSqA9O4YfpTEkWZaX1V-498" value="commented_at DATETIME" style="shape=partialRectangle;overflow=hidden;connectable=0;fillColor=none;top=0;left=0;bottom=0;right=0;align=left;spacingLeft=6;fixDash=0;resizeLast=0;shadow=0;fontSize=12;" vertex="1" parent="5nSqA9O4YfpTEkWZaX1V-496">
          <mxGeometry x="33" width="248" height="30" as="geometry">
            <mxRectangle width="248" height="30" as="alternateBounds" />
          </mxGeometry>
        </mxCell>
        <mxCell id="5nSqA9O4YfpTEkWZaX1V-499" value="&lt;span data-lucid-content=&quot;{&amp;quot;t&amp;quot;:&amp;quot;Users(user_id)&amp;quot;,&amp;quot;m&amp;quot;:[{&amp;quot;s&amp;quot;:0,&amp;quot;n&amp;quot;:&amp;quot;a&amp;quot;,&amp;quot;v&amp;quot;:&amp;quot;center&amp;quot;},{&amp;quot;s&amp;quot;:0,&amp;quot;n&amp;quot;:&amp;quot;p&amp;quot;,&amp;quot;v&amp;quot;:1.2},{&amp;quot;s&amp;quot;:0,&amp;quot;n&amp;quot;:&amp;quot;fc&amp;quot;,&amp;quot;v&amp;quot;:&amp;quot;Regular&amp;quot;,&amp;quot;e&amp;quot;:14},{&amp;quot;s&amp;quot;:0,&amp;quot;n&amp;quot;:&amp;quot;fid&amp;quot;,&amp;quot;v&amp;quot;:947029,&amp;quot;e&amp;quot;:14},{&amp;quot;s&amp;quot;:0,&amp;quot;n&amp;quot;:&amp;quot;fsp&amp;quot;,&amp;quot;v&amp;quot;:&amp;quot;ss_presetShapeStyle1_textStyle&amp;quot;,&amp;quot;e&amp;quot;:14},{&amp;quot;s&amp;quot;:0,&amp;quot;n&amp;quot;:&amp;quot;s&amp;quot;,&amp;quot;v&amp;quot;:17.77777777777778,&amp;quot;e&amp;quot;:14}]}&quot; data-lucid-type=&quot;application/vnd.lucid.text&quot;&gt;&lt;span&gt;Users(user_id)&lt;/span&gt;&lt;/span&gt;" style="rounded=0;whiteSpace=wrap;html=1;fontSize=12;" vertex="1" parent="1">
          <mxGeometry x="479" y="1300" width="90" height="30" as="geometry" />
        </mxCell>
        <mxCell id="5nSqA9O4YfpTEkWZaX1V-500" value="&lt;span data-lucid-content=&quot;{&amp;quot;t&amp;quot;:&amp;quot;Users(user_id)&amp;quot;,&amp;quot;m&amp;quot;:[{&amp;quot;s&amp;quot;:0,&amp;quot;n&amp;quot;:&amp;quot;a&amp;quot;,&amp;quot;v&amp;quot;:&amp;quot;center&amp;quot;},{&amp;quot;s&amp;quot;:0,&amp;quot;n&amp;quot;:&amp;quot;p&amp;quot;,&amp;quot;v&amp;quot;:1.2},{&amp;quot;s&amp;quot;:0,&amp;quot;n&amp;quot;:&amp;quot;fc&amp;quot;,&amp;quot;v&amp;quot;:&amp;quot;Regular&amp;quot;,&amp;quot;e&amp;quot;:14},{&amp;quot;s&amp;quot;:0,&amp;quot;n&amp;quot;:&amp;quot;fid&amp;quot;,&amp;quot;v&amp;quot;:947029,&amp;quot;e&amp;quot;:14},{&amp;quot;s&amp;quot;:0,&amp;quot;n&amp;quot;:&amp;quot;fsp&amp;quot;,&amp;quot;v&amp;quot;:&amp;quot;ss_presetShapeStyle1_textStyle&amp;quot;,&amp;quot;e&amp;quot;:14},{&amp;quot;s&amp;quot;:0,&amp;quot;n&amp;quot;:&amp;quot;s&amp;quot;,&amp;quot;v&amp;quot;:17.77777777777778,&amp;quot;e&amp;quot;:14}]}&quot; data-lucid-type=&quot;application/vnd.lucid.text&quot;&gt;&lt;span&gt;Task(task_id)&lt;/span&gt;&lt;/span&gt;" style="rounded=0;whiteSpace=wrap;html=1;fontSize=12;" vertex="1" parent="1">
          <mxGeometry x="479" y="1270" width="90" height="30" as="geometry" />
        </mxCell>
        <mxCell id="5nSqA9O4YfpTEkWZaX1V-501" style="edgeStyle=orthogonalEdgeStyle;rounded=0;orthogonalLoop=1;jettySize=auto;html=1;exitX=0.5;exitY=1;exitDx=0;exitDy=0;" edge="1" parent="1" source="5nSqA9O4YfpTEkWZaX1V-500" target="5nSqA9O4YfpTEkWZaX1V-500">
          <mxGeometry relative="1" as="geometry" />
        </mxCell>
        <mxCell id="5nSqA9O4YfpTEkWZaX1V-520" value="ExamQuestions" style="shape=table;startSize=40;container=1;collapsible=1;childLayout=tableLayout;fixedRows=1;rowLines=1;fontStyle=1;align=center;resizeLast=0;swimlaneLine=1;fixDash=0;shadow=0;fontSize=12;movable=0;resizable=0;rotatable=0;deletable=0;editable=0;locked=1;connectable=0;" vertex="1" parent="1">
          <mxGeometry x="570" y="1430" width="281" height="130" as="geometry" />
        </mxCell>
        <mxCell id="5nSqA9O4YfpTEkWZaX1V-521" value="" style="shape=partialRectangle;collapsible=0;dropTarget=0;pointerEvents=0;fillColor=none;points=[[0,0.5],[1,0.5]];portConstraint=eastwest;top=0;left=0;right=0;bottom=1;fixDash=0;resizeLast=0;shadow=0;fontSize=12;" vertex="1" parent="5nSqA9O4YfpTEkWZaX1V-520">
          <mxGeometry y="40" width="281" height="30" as="geometry" />
        </mxCell>
        <mxCell id="5nSqA9O4YfpTEkWZaX1V-522" value="PK" style="shape=partialRectangle;overflow=hidden;connectable=0;fillColor=none;top=0;left=0;bottom=0;right=0;fontStyle=1;fixDash=0;resizeLast=0;shadow=0;fontSize=12;" vertex="1" parent="5nSqA9O4YfpTEkWZaX1V-521">
          <mxGeometry width="33" height="30" as="geometry">
            <mxRectangle width="33" height="30" as="alternateBounds" />
          </mxGeometry>
        </mxCell>
        <mxCell id="5nSqA9O4YfpTEkWZaX1V-523" value="exam_question_id INT AUTO_INCREMENT" style="shape=partialRectangle;overflow=hidden;connectable=0;fillColor=none;top=0;left=0;bottom=0;right=0;align=left;spacingLeft=6;fontStyle=0;fixDash=0;resizeLast=0;shadow=0;fontSize=12;" vertex="1" parent="5nSqA9O4YfpTEkWZaX1V-521">
          <mxGeometry x="33" width="248" height="30" as="geometry">
            <mxRectangle width="248" height="30" as="alternateBounds" />
          </mxGeometry>
        </mxCell>
        <mxCell id="5nSqA9O4YfpTEkWZaX1V-524" value="" style="shape=partialRectangle;collapsible=0;dropTarget=0;pointerEvents=0;fillColor=none;points=[[0,0.5],[1,0.5]];portConstraint=eastwest;top=0;left=0;right=0;bottom=0;fixDash=0;resizeLast=0;shadow=0;fontSize=12;" vertex="1" parent="5nSqA9O4YfpTEkWZaX1V-520">
          <mxGeometry y="70" width="281" height="30" as="geometry" />
        </mxCell>
        <mxCell id="5nSqA9O4YfpTEkWZaX1V-525" value="FK" style="shape=partialRectangle;overflow=hidden;connectable=0;fillColor=none;top=0;left=0;bottom=0;right=0;fixDash=0;resizeLast=0;shadow=0;fontSize=12;" vertex="1" parent="5nSqA9O4YfpTEkWZaX1V-524">
          <mxGeometry width="33" height="30" as="geometry">
            <mxRectangle width="33" height="30" as="alternateBounds" />
          </mxGeometry>
        </mxCell>
        <mxCell id="5nSqA9O4YfpTEkWZaX1V-526" value="exam_id INT" style="shape=partialRectangle;overflow=hidden;connectable=0;fillColor=none;top=0;left=0;bottom=0;right=0;align=left;spacingLeft=6;fixDash=0;resizeLast=0;shadow=0;fontSize=12;" vertex="1" parent="5nSqA9O4YfpTEkWZaX1V-524">
          <mxGeometry x="33" width="248" height="30" as="geometry">
            <mxRectangle width="248" height="30" as="alternateBounds" />
          </mxGeometry>
        </mxCell>
        <mxCell id="5nSqA9O4YfpTEkWZaX1V-527" value="" style="shape=partialRectangle;collapsible=0;dropTarget=0;pointerEvents=0;fillColor=none;points=[[0,0.5],[1,0.5]];portConstraint=eastwest;top=0;left=0;right=0;bottom=0;fixDash=0;resizeLast=0;shadow=0;fontSize=12;" vertex="1" parent="5nSqA9O4YfpTEkWZaX1V-520">
          <mxGeometry y="100" width="281" height="30" as="geometry" />
        </mxCell>
        <mxCell id="5nSqA9O4YfpTEkWZaX1V-528" value="FK" style="shape=partialRectangle;overflow=hidden;connectable=0;fillColor=none;top=0;left=0;bottom=0;right=0;fixDash=0;resizeLast=0;shadow=0;fontSize=12;" vertex="1" parent="5nSqA9O4YfpTEkWZaX1V-527">
          <mxGeometry width="33" height="30" as="geometry">
            <mxRectangle width="33" height="30" as="alternateBounds" />
          </mxGeometry>
        </mxCell>
        <mxCell id="5nSqA9O4YfpTEkWZaX1V-529" value="question_id INT" style="shape=partialRectangle;overflow=hidden;connectable=0;fillColor=none;top=0;left=0;bottom=0;right=0;align=left;spacingLeft=6;fixDash=0;resizeLast=0;shadow=0;fontSize=12;" vertex="1" parent="5nSqA9O4YfpTEkWZaX1V-527">
          <mxGeometry x="33" width="248" height="30" as="geometry">
            <mxRectangle width="248" height="30" as="alternateBounds" />
          </mxGeometry>
        </mxCell>
        <mxCell id="5nSqA9O4YfpTEkWZaX1V-530" value="Exams(exam_id)" style="rounded=0;whiteSpace=wrap;html=1;fontSize=12;" vertex="1" parent="1">
          <mxGeometry x="471" y="1500" width="99" height="30" as="geometry" />
        </mxCell>
        <mxCell id="5nSqA9O4YfpTEkWZaX1V-531" value="Questions(question_id)" style="rounded=0;whiteSpace=wrap;html=1;fontSize=12;" vertex="1" parent="1">
          <mxGeometry x="441" y="1530" width="129" height="30" as="geometry" />
        </mxCell>
      </root>
    </mxGraphModel>
  </diagram>
</mxfile>
